<?xml version="1.0" encoding="UTF-8"?>
<svg width="23px" height="24px" viewBox="0 0 23 24" version="1.1" xmlns="http://www.w3.org/2000/svg" xmlns:xlink="http://www.w3.org/1999/xlink">
    <!-- Generator: Sketch 52.6 (67491) - http://www.bohemiancoding.com/sketch -->
    <title>wallet</title>
    <desc>Created with Sketch.</desc>
    <g id="-Dashboard" stroke="none" stroke-width="1" fill="none" fill-rule="evenodd">
        <g id="Kitle-ve-Bütçe-Belirleme" transform="translate(-19.000000, -143.000000)" fill="#FFFFFF" fill-rule="nonzero">
            <g id="wallet" transform="translate(19.000000, 143.000000)">
                <path d="M22.9444685,11.1760478 L21.8347357,11.1760478 L21.8347357,5.88107463 C21.8347357,4.61165373 20.8391051,3.57893731 19.6152703,3.57893731 L18.1122583,3.57893731 L16.5741592,0.710471642 C16.3397387,0.272095522 15.8936216,0 15.4097928,0 C15.1842823,0 14.9605676,0.0603223881 14.76303,0.17401791 L8.86011111,3.57886567 L2.2665015,3.57886567 C1.04266667,3.57886567 0.047036036,4.61158209 0.047036036,5.88100299 L0.047036036,21.6889791 C0.047036036,22.9584 1.04266667,23.9911164 2.2665015,23.9911164 L19.6152703,23.9911164 C20.8391051,23.9911164 21.8347357,22.9584 21.8347357,21.6889791 L21.8347357,17.0464478 L22.9444685,17.0464478 L22.9444685,11.1760478 Z M19.6152703,4.49974925 C20.2988468,4.49974925 20.8572703,5.03842388 20.9322793,5.72768955 L19.2641231,5.72768955 L18.6062402,4.49974925 L19.6152703,4.49974925 Z M15.1949189,0.978841791 C15.4030931,0.857767164 15.6832372,0.942447761 15.7981682,1.15751642 L18.2484625,5.7272597 L6.96202402,5.7272597 L15.1949189,0.978841791 Z M20.9469219,21.6889791 C20.9469219,22.4505313 20.3494054,23.0703045 19.6152012,23.0703045 L2.2665015,23.0703045 C1.5322973,23.0703045 0.934780781,22.4505313 0.934780781,21.6889791 L0.934780781,5.88107463 C0.934780781,5.11952239 1.5322973,4.49974925 2.2665015,4.49974925 L7.26385586,4.49974925 L5.13493994,5.72776119 L2.54395195,5.72776119 C2.29848048,5.72776119 2.10004505,5.93401791 2.10004505,6.18820299 C2.10004505,6.44238806 2.29848048,6.64864478 2.54395195,6.64864478 L3.53827027,6.64864478 L19.7577598,6.64864478 L20.9469219,6.64864478 L20.9469219,11.1764776 L17.7007447,11.1764776 C16.1932432,11.1764776 14.9663694,12.4491224 14.9663694,14.0127045 L14.9663694,14.2107224 C14.9663694,15.7743761 16.1933123,17.0469493 17.7007447,17.0469493 L20.9469219,17.0469493 L20.9469219,21.6889791 Z M22.0566547,16.1256358 L21.8347357,16.1256358 L17.7007447,16.1256358 C16.6824595,16.1256358 15.8541141,15.2665075 15.8541141,14.2102209 L15.8541141,14.012203 C15.8541141,12.9559881 16.6823904,12.0967881 17.7007447,12.0967881 L21.8347357,12.0967881 L22.0566547,12.0967881 L22.0566547,16.1256358 Z M19.0603694,14.1490388 C19.0603694,14.7107821 18.6217808,15.1656358 18.0802793,15.1656358 C17.5387087,15.1656358 17.1001892,14.7107104 17.1001892,14.1490388 C17.1001892,13.5873672 17.5387778,13.1324418 18.0802793,13.1324418 C18.6218498,13.1323701 19.0603694,13.5877254 19.0603694,14.1490388 Z" id="Shape"></path>
            </g>
        </g>
    </g>
</svg>