<?xml version="1.0" encoding="UTF-8"?>
<svg width="26px" height="26px" viewBox="0 0 26 26" version="1.1" xmlns="http://www.w3.org/2000/svg" xmlns:xlink="http://www.w3.org/1999/xlink">
    <!-- Generator: Sketch 52.6 (67491) - http://www.bohemiancoding.com/sketch -->
    <title>contact</title>
    <desc>Created with Sketch.</desc>
    <g id="-Dashboard" stroke="none" stroke-width="1" fill="none" fill-rule="evenodd">
        <g id="Kitle-ve-Bütçe-Belirleme" transform="translate(-19.000000, -442.000000)" fill="#FFFFFF">
            <g id="contact" transform="translate(19.000000, 442.000000)">
                <path d="M16.8799298,10.1028281 C16.7856608,10.008375 16.6549006,9.95403906 16.5215556,9.95403906 C16.3882612,9.95403906 16.2574503,10.0083242 16.1631813,10.1028281 C16.0689123,10.1972813 16.0146823,10.3282969 16.0146823,10.4619023 C16.0146823,10.5955078 16.0689123,10.7265234 16.1631813,10.8209258 C16.2574503,10.9153789 16.3882105,10.9697656 16.5215556,10.9697656 C16.6548499,10.9697656 16.7856101,10.9154297 16.8799298,10.8209258 C16.9741988,10.7265234 17.0284288,10.5955078 17.0284288,10.4619023 C17.0284288,10.3277383 16.9741988,10.1972812 16.8799298,10.1028281 Z" id="Path"></path>
                <path d="M25.3151813,0.2868125 C25.3095049,0.282445312 25.303575,0.278484375 25.2977466,0.274371094 C25.0512281,0.101714844 24.7516959,0 24.4286979,0 L10.2363977,0 C9.93362183,0 9.65157505,0.0894257812 9.41433138,0.242835937 C9.39547758,0.25390625 9.37728265,0.266195313 9.35974659,0.279804687 C8.9705575,0.556054687 8.71577778,1.01034375 8.71577778,1.52353906 L8.71577778,9.446125 C8.71577778,10.2861992 9.39791033,10.9697148 10.2363977,10.9697148 L13.9872398,10.9697148 C14.2672086,10.9697148 14.4941131,10.7423164 14.4941131,10.4618516 C14.4941131,10.1814375 14.2672086,9.95398828 13.9872398,9.95398828 L10.7335906,9.95398828 L14.89354,5.08396484 L17.0359298,6.63304687 C17.1244717,6.69703125 17.2284717,6.72907422 17.3325731,6.72907422 C17.4363704,6.72907422 17.5401676,6.69718359 17.6286082,6.63345312 L19.7740897,5.08691016 L23.9316062,9.95398828 L18.7518791,9.95398828 C18.471961,9.95398828 18.2450058,10.1813867 18.2450058,10.4618516 C18.2450058,10.7423164 18.4719103,10.9697148 18.7518791,10.9697148 L24.4287992,10.9697148 C25.2672865,10.9697148 25.9494191,10.28625 25.9494191,9.446125 L25.9494191,1.52358984 C25.9493177,1.01476172 25.6987953,0.563722656 25.3151813,0.2868125 Z M9.74123197,9.55378125 C9.73373099,9.51904688 9.72952437,9.48314453 9.72952437,9.44617578 L9.72952437,1.52358984 C9.72952437,1.46925391 9.7382924,1.417 9.75415595,1.36784375 L14.0687875,4.48764062 L9.74123197,9.55378125 Z M17.3330799,5.59533203 L10.9995712,1.01572656 L23.6862534,1.01572656 L17.3330799,5.59533203 Z M24.9355712,9.44617578 C24.9355712,9.48309375 24.9313645,9.51904687 24.9238635,9.55378125 L20.5998051,4.49170312 L24.9149435,1.38119922 C24.9281715,1.42644531 24.9355712,1.47412891 24.9355712,1.52353906 L24.9355712,9.44617578 Z" id="Shape" fill-rule="nonzero"></path>
                <path d="M22.7053489,22.1973984 C22.6293762,22.1973984 22.557306,22.2141562 22.4926355,22.244168 L22.2452047,22.244168 C21.9652865,22.244168 21.7383314,22.4715664 21.7383314,22.7520312 C21.7383314,23.0324453 21.9652359,23.2598945 22.2452047,23.2598945 L22.7053996,23.2598945 C22.9853177,23.2598945 23.2122729,23.0324961 23.2122729,22.7520312 L23.2122729,22.7052617 C23.2122222,22.4248477 22.9853177,22.1973984 22.7053489,22.1973984 Z" id="Path"></path>
                <path d="M22.7053489,19.6581328 C22.4254308,19.6581328 22.1984756,19.8855312 22.1984756,20.1659961 L22.1984756,20.6738594 C22.1984756,20.9543242 22.4253801,21.1817227 22.7053489,21.1817227 C22.9853177,21.1817227 23.2122222,20.9543242 23.2122222,20.6738594 L23.2122222,20.1659961 C23.2122222,19.8855312 22.9853177,19.6581328 22.7053489,19.6581328 Z" id="Path"></path>
                <path d="M20.2177115,22.244168 L19.7108382,22.244168 C19.4309201,22.244168 19.2039649,22.4715664 19.2039649,22.7520312 C19.2039649,23.0324453 19.4308694,23.2598945 19.7108382,23.2598945 L20.2177115,23.2598945 C20.4976803,23.2598945 20.7245848,23.0324961 20.7245848,22.7520312 C20.7245848,22.4716172 20.4976296,22.244168 20.2177115,22.244168 Z" id="Path"></path>
                <path d="M22.7053489,12.0402344 C22.4254308,12.0402344 22.1984756,12.2676328 22.1984756,12.5480977 L22.1984756,13.0559609 C22.1984756,13.336375 22.4253801,13.5638242 22.7053489,13.5638242 C22.9853177,13.5638242 23.2122222,13.3364258 23.2122222,13.0559609 L23.2122222,12.5480977 C23.2122222,12.2676836 22.9853177,12.0402344 22.7053489,12.0402344 Z" id="Path"></path>
                <path d="M22.7053489,14.5795508 C22.4254308,14.5795508 22.1984756,14.8069492 22.1984756,15.0874141 L22.1984756,15.5952773 C22.1984756,15.8756914 22.4253801,16.1031406 22.7053489,16.1031406 C22.9853177,16.1031406 23.2122222,15.8757422 23.2122222,15.5952773 L23.2122222,15.0874141 C23.2122222,14.8069492 22.9853177,14.5795508 22.7053489,14.5795508 Z" id="Path"></path>
                <path d="M22.7053489,17.1188164 C22.4254308,17.1188164 22.1984756,17.3462148 22.1984756,17.6266797 L22.1984756,18.134543 C22.1984756,18.4150078 22.4253801,18.6424063 22.7053489,18.6424063 C22.9853177,18.6424063 23.2122222,18.4150078 23.2122222,18.134543 L23.2122222,17.6266797 C23.2122222,17.3462656 22.9853177,17.1188164 22.7053489,17.1188164 Z" id="Path"></path>
                <path d="M3.74851072,2.74244141 L3.24163743,2.74244141 C2.9617193,2.74244141 2.73476413,2.96983984 2.73476413,3.25030469 C2.73476413,3.53076953 2.9617193,3.75816797 3.24163743,3.75816797 L3.74851072,3.75816797 C4.02842885,3.75816797 4.25538402,3.53076953 4.25538402,3.25030469 C4.25533333,2.96983984 4.02842885,2.74244141 3.74851072,2.74244141 Z" id="Path"></path>
                <path d="M6.28282651,2.74244141 L5.77595322,2.74244141 C5.49603509,2.74244141 5.26907992,2.96983984 5.26907992,3.25030469 C5.26907992,3.53076953 5.49603509,3.75816797 5.77595322,3.75816797 L6.28282651,3.75816797 C6.56274464,3.75816797 6.78969981,3.53076953 6.78969981,3.25030469 C6.78969981,2.96983984 6.56279532,2.74244141 6.28282651,2.74244141 Z" id="Path"></path>
                <path d="M3.24163743,4.77384375 C2.9617193,4.77384375 2.73476413,5.00124219 2.73476413,5.28170703 L2.73476413,5.78957031 C2.73476413,6.07003516 2.9617193,6.29743359 3.24163743,6.29743359 C3.52155556,6.29743359 3.74851072,6.07003516 3.74851072,5.78957031 L3.74851072,5.28170703 C3.74851072,5.00129297 3.52155556,4.77384375 3.24163743,4.77384375 Z" id="Path"></path>
                <path d="M3.24163743,7.31316016 C2.9617193,7.31316016 2.73476413,7.54055859 2.73476413,7.82102344 L2.73476413,8.32888672 C2.73476413,8.60935156 2.9617193,8.83675 3.24163743,8.83675 C3.52155556,8.83675 3.74851072,8.60935156 3.74851072,8.32888672 L3.74851072,7.82102344 C3.74851072,7.54055859 3.52155556,7.31316016 3.24163743,7.31316016 Z" id="Path"></path>
                <path d="M5.60566082,20.5844844 C5.51139181,20.4900312 5.38063158,20.4356953 5.24728655,20.4356953 C5.11348538,20.4356953 4.98318129,20.4900312 4.88840546,20.5844844 C4.79413645,20.6789375 4.74041326,20.8099531 4.74041326,20.9435586 C4.74041326,21.0771641 4.79413645,21.2081289 4.88840546,21.3026328 C4.98318129,21.3970352 5.11394152,21.4514219 5.24728655,21.4514219 C5.38063158,21.4514219 5.51083431,21.3970859 5.60566082,21.3026328 C5.69992982,21.2081797 5.75415984,21.0771641 5.75415984,20.9435586 C5.75415984,20.8099531 5.69992982,20.6789883 5.60566082,20.5844844 Z" id="Path"></path>
                <path d="M15.7770331,21.12175 L13.1063821,18.4458828 C12.3399649,17.6780195 11.0928265,17.6779687 10.326308,18.4459336 L10.1523158,18.6203164 C9.91066277,18.862543 9.51736842,18.8624922 9.27566472,18.6203164 L7.36534893,16.7062695 C7.2482729,16.5889648 7.18380507,16.4330156 7.18380507,16.2671133 C7.18380507,16.1012109 7.2482729,15.9452617 7.36539961,15.827957 L7.53939181,15.6535742 C8.30585965,14.8856094 8.30585965,13.6360352 7.53939181,12.8680703 L4.86869006,10.1921523 C4.10222222,9.42423828 2.85503314,9.42423828 2.08866667,10.1921523 L1.44961404,10.8324023 C-0.483204678,12.7690469 -0.483204678,15.9201758 1.44961404,17.8567695 L3.19181676,19.602375 C3.38973099,19.800625 3.71070175,19.800625 3.90866667,19.602375 C4.1065809,19.4040742 4.1065809,19.0824766 3.90866667,18.884125 L2.16646394,17.1385195 C0.628865497,15.597918 0.628865497,13.0912031 2.16646394,11.5506016 L2.80546589,10.9103516 C3.17666277,10.5383789 3.78064327,10.5383789 4.15184016,10.9103516 L6.82249123,13.5862187 C7.19373879,13.9581406 7.19373879,14.5633008 6.82249123,14.9352227 L6.64849903,15.1096055 C6.58458869,15.1736406 6.52701365,15.2422461 6.47526706,15.3143555 L4.36582066,13.2007891 C4.16790643,13.0025391 3.84693567,13.0025391 3.64897076,13.2007891 C3.45105653,13.3990898 3.45105653,13.7206875 3.64897076,13.9190391 L6.18120858,16.4561719 C6.22297076,16.8217461 6.38490058,17.1602539 6.64849903,17.4243672 L8.55881481,19.3384141 C9.19578947,19.9765312 10.2321404,19.976582 10.869115,19.3383633 L11.0431579,19.1639805 C11.4143548,18.7920078 12.0183353,18.7920078 12.3895322,19.1639805 L15.0602339,21.8398477 C15.2400039,22.0200195 15.3390877,22.2596055 15.3390877,22.5143242 C15.3390877,22.769043 15.2400546,23.0086289 15.0601832,23.1888008 L14.6972982,23.5523945 L12.2665263,21.116875 C12.0686121,20.918625 11.7476413,20.918625 11.5496764,21.116875 C11.3517622,21.3151758 11.3517622,21.6367734 11.5496764,21.835125 L13.9453255,24.2354531 C12.4044327,25.3546211 10.2316335,25.2194922 8.84405458,23.8291016 L7.53148538,22.5139687 C7.33357115,22.3157695 7.01260039,22.3157187 6.81468616,22.5139687 C6.61677193,22.7122695 6.61677193,23.0338672 6.81468616,23.2322187 L8.12725536,24.5473516 C9.09366472,25.5158008 10.363154,26 11.6326433,26 C12.9021326,26 14.1715712,25.5158516 15.1380312,24.5475039 L15.7769825,23.9072539 C16.1483314,23.5352305 16.3527836,23.0406719 16.3527836,22.5145273 C16.3527836,21.9883828 16.1482807,21.4937734 15.7770331,21.12175 Z" id="Path"></path>
            </g>
        </g>
    </g>
</svg>