<?xml version="1.0" encoding="UTF-8"?>
<svg width="24px" height="19px" viewBox="0 0 24 19" version="1.1" xmlns="http://www.w3.org/2000/svg" xmlns:xlink="http://www.w3.org/1999/xlink">
    <!-- Generator: Sketch 52.6 (67491) - http://www.bohemiancoding.com/sketch -->
    <title>campaigning</title>
    <desc>Created with Sketch.</desc>
    <g id="-Dashboard" stroke="none" stroke-width="1" fill="none" fill-rule="evenodd">
        <g id="Kitle-ve-Bütçe-Belirleme" transform="translate(-19.000000, -248.000000)" fill="#FFFFFF">
            <g id="campaigning" transform="translate(19.000000, 248.000000)">
                <path d="M0.759493671,4.51607527 C0.340050633,4.51607527 0,4.85909677 0,5.2822043 L0,11.2620968 C0,11.6852043 0.340050633,12.0282258 0.759493671,12.0282258 C1.17893671,12.0282258 1.51898734,11.6852043 1.51898734,11.2620968 L1.51898734,5.2822043 C1.51898734,4.85909677 1.17893671,4.51607527 0.759493671,4.51607527 Z" id="Path"></path>
                <path d="M16.8534684,0.0468870968 L13.6935696,0.0468870968 C13.2741266,0.0468870968 12.9340759,0.389908602 12.9340759,0.813016129 L12.9340759,1.50508602 L2.76344304,4.54743548 C2.44101266,4.64386559 2.2198481,4.94275806 2.2198481,5.28189785 L2.2198481,11.2589301 C2.21964557,11.2972366 2.22329114,11.3358495 2.22896203,11.3745645 C2.22997468,11.3817151 2.23098734,11.3888656 2.23220253,11.395914 C2.23787342,11.4275806 2.24475949,11.4592473 2.25458228,11.4907097 L4.40759494,18.4267312 C4.50926582,18.754328 4.80891139,18.9641452 5.1321519,18.9641452 C5.20718987,18.9641452 5.2835443,18.9528065 5.35898734,18.9290054 L8.49427848,17.940086 C8.68658228,17.8794086 8.84708861,17.7441613 8.9404557,17.564172 C9.03392405,17.3841828 9.05255696,17.1740591 8.99240506,16.9800753 L7.92546835,13.5407688 L12.9339747,15.0393172 L12.9339747,15.7312849 C12.9339747,16.1543925 13.2740253,16.497414 13.6934684,16.497414 L16.8533671,16.497414 C17.2728101,16.497414 17.6128608,16.1543925 17.6128608,15.7312849 L17.6128608,0.813016129 C17.612962,0.389908602 17.2729114,0.0468870968 16.8534684,0.0468870968 Z M7.31594937,16.7063118 L5.63027848,17.2380054 L4.13012658,12.4051613 L6.17103797,13.0157151 L7.31594937,16.7063118 Z M6.99524051,11.6642634 C6.99311392,11.6636505 6.99088608,11.6629355 6.98875949,11.6623226 L3.73893671,10.6899516 L3.73893671,5.85383871 L12.9341772,3.10333333 L12.9341772,13.441172 L6.99524051,11.6642634 Z M16.0939747,14.9652581 L14.4530633,14.9652581 L14.4530633,14.4674785 L14.4530633,2.07702688 L14.4530633,1.57924731 L16.0939747,1.57924731 L16.0939747,14.9652581 Z" id="Shape" fill-rule="nonzero"></path>
                <path d="M22.780962,12.5613495 L19.4946835,10.9035484 C19.1193924,10.7144677 18.6632911,10.8675914 18.4756456,11.2461613 C18.288,11.624629 18.4401013,12.0848172 18.8152911,12.2741022 L22.1015696,13.9319032 C22.2106329,13.9869624 22.326481,14.0129086 22.4407089,14.0129086 C22.7192911,14.0129086 22.9875443,13.8577419 23.1206076,13.5892903 C23.3081519,13.2108226 23.1560506,12.7506344 22.780962,12.5613495 Z" id="Path"></path>
                <path d="M19.1555443,5.72165591 C19.2696709,5.72165591 19.3856203,5.69560753 19.4945823,5.64054839 L22.780962,3.98295161 C23.1561519,3.79366667 23.3082532,3.33358065 23.1206076,2.9551129 C22.9330633,2.57664516 22.4767595,2.42321505 22.1016709,2.6125 L18.8152911,4.27009677 C18.4401013,4.45938172 18.288,4.91946774 18.4756456,5.29793548 C18.6087089,5.56648925 18.876962,5.72165591 19.1555443,5.72165591 Z" id="Path"></path>
                <path d="M23.1501772,7.50602151 L20.4060759,7.50602151 C19.9866329,7.50602151 19.6465823,7.84904301 19.6465823,8.27215054 C19.6465823,8.69525806 19.9866329,9.03827957 20.4060759,9.03827957 L23.1501772,9.03827957 C23.5696203,9.03827957 23.9096709,8.69525806 23.9096709,8.27215054 C23.9096709,7.84894086 23.5696203,7.50602151 23.1501772,7.50602151 Z" id="Path"></path>
            </g>
        </g>
    </g>
</svg>