<?xml version="1.0" encoding="UTF-8"?>
<svg width="23px" height="23px" viewBox="0 0 23 23" version="1.1" xmlns="http://www.w3.org/2000/svg" xmlns:xlink="http://www.w3.org/1999/xlink">
    <!-- Generator: Sketch 52.6 (67491) - http://www.bohemiancoding.com/sketch -->
    <title>team</title>
    <desc>Created with Sketch.</desc>
    <g id="-Dashboard" stroke="none" stroke-width="1" fill="none" fill-rule="evenodd">
        <g id="Kitle-ve-Bütçe-Belirleme" transform="translate(-19.000000, -196.000000)" fill="#FFFFFF" fill-rule="nonzero">
            <g id="team" transform="translate(19.000000, 196.000000)">
                <path d="M20.4344668,19.3344199 L20.056584,19.1828984 C21.9569141,17.0689648 23,14.353707 23,11.5 C23,9.16536523 22.2941875,6.91900195 21.008209,5.03062109 C20.9926211,4.99993945 20.9733047,4.9723125 20.9508438,4.94818945 C20.3874785,4.13622656 19.7168398,3.39151172 18.9472383,2.73686523 C18.794459,2.60690625 18.5653125,2.62541406 18.4353535,2.77819336 C18.3053945,2.93097266 18.3239023,3.16020898 18.4766367,3.29012305 C19.094043,3.81530469 19.6435723,4.40234375 20.1202832,5.03767383 C19.3515801,5.33811133 18.4288848,5.59254883 17.3988262,5.79357422 C17.1144707,4.94634766 16.7649785,4.15644141 16.354123,3.44375586 C15.8003711,2.48310156 15.1634238,1.70954688 14.4692461,1.14061133 C15.5496621,1.44949414 16.5788672,1.9280918 17.5233496,2.56611719 C17.6895605,2.67828711 17.915248,2.63466797 18.0275527,2.46845703 C18.1398125,2.30229102 18.0961035,2.07655859 17.9298926,1.96425391 C16.0279453,0.67921875 13.8044922,0 11.5,0 C8.42819727,0 5.54034961,1.19617969 3.36833203,3.36833203 C1.19617969,5.54034961 0,8.42828711 0,11.5 C0,14.3573906 1.04452344,17.0730078 2.94795312,19.1877051 L2.57483203,19.3338359 C2.43741602,19.3834746 1.26895312,19.8495391 1.26895312,21.3352402 L1.26895312,22.6364922 C1.26895312,22.8371133 1.43148047,23 1.63210156,23 L3.72114844,23 L4.04633789,23 L4.43369922,23 L6.29175781,23 L6.97753516,23 C6.99505469,23 7.01216992,22.9983379 7.02901562,22.9959121 C7.04590625,22.9983379 7.06297656,23 7.08049609,23 L8.55815625,23 C8.75877734,23 8.92130469,22.8374727 8.92130469,22.6368516 C8.92130469,22.4362305 8.75873242,22.2737031 8.55815625,22.2737031 L7.44364453,22.2737031 L7.44364453,21.0089277 C7.44364453,19.6745684 8.49176172,19.2907559 8.53407812,19.2758418 C8.53969336,19.2739551 8.54526367,19.2719336 8.55083398,19.2697324 L10.3193184,18.577127 C10.3231367,18.5812598 10.3267305,18.5855723 10.3307734,18.5895254 L11.2706289,19.5049434 C11.3385059,19.5709785 11.4294727,19.6079492 11.5240332,19.6079492 C11.5259199,19.6079492 11.5278516,19.6079492 11.5297383,19.6079043 C11.6263652,19.6064219 11.7185,19.5663965 11.7854785,19.4967676 L12.6879141,18.560416 L14.4540176,19.2686543 C14.4604414,19.2712598 14.4646641,19.272877 14.4712227,19.2750332 C14.5158301,19.2907109 15.564082,19.6746582 15.564082,21.0089277 L15.564082,22.2737031 L12.9078516,22.2737031 L10.0997402,22.2737031 L9.69315234,22.2737031 C9.49253125,22.2737031 9.33000391,22.4362754 9.33000391,22.6368516 C9.33000391,22.8374727 9.49257617,23 9.69315234,23 L10.0997402,23 L12.9078516,23 L15.9272754,23 L15.9273203,23 L15.9273652,23 L16.3906895,23 L16.715834,23 L17.1032852,23 L18.9612539,23 L21.3755801,23 C21.5762012,23 21.7387285,22.8348672 21.7387285,22.634291 L21.7387285,21.3352402 C21.7388184,19.8552441 20.5791602,19.3870234 20.4344668,19.3344199 Z M19.3356328,18.8937812 L18.9776504,18.7502109 L18.9776504,18.5435703 C19.3732773,18.3115488 19.6773535,17.9399102 19.8218223,17.4966211 C20.3501484,17.4548887 20.7674727,17.012543 20.7674727,16.4737051 C20.7674727,16.1532324 20.6197695,15.8668105 20.3890957,15.6782285 L20.3890957,15.032791 C20.3890957,13.7883652 19.4552598,12.7586211 18.2517129,12.6057969 C18.2654141,12.3595801 18.2748926,12.1115215 18.2794746,11.8631484 L22.2669648,11.8631484 C22.1796816,14.4918418 21.1471074,16.9748086 19.3356328,18.8937812 Z M18.024543,18.076248 L17.693334,18.076248 C17.051625,18.076248 16.5295879,17.5542109 16.5295879,16.9125918 L16.5295879,15.9517129 C17.0026602,15.9003672 17.8405879,15.7350098 18.4861602,15.1958574 C18.6307637,15.4438711 18.8545195,15.7120996 19.1882891,15.8687422 L19.1882891,16.9125469 C19.1882441,17.5542109 18.666207,18.076248 18.024543,18.076248 Z M18.2513984,18.7884395 L18.2513984,18.9897793 L17.8467422,19.4096191 L17.4665234,19.0393281 L17.4665234,18.7883945 C17.540959,18.797334 17.6165625,18.8025 17.6933789,18.8025 L18.0245879,18.8025 C18.1014043,18.8025449 18.176918,18.7973789 18.2513984,18.7884395 Z M16.1676074,15.249 C16.1672031,15.249 16.1667988,15.249 16.1663945,15.249 C16.1539062,15.249 16.1415078,15.2496738 16.129334,15.2508867 C16.1254258,15.251291 16.1216074,15.2520996 16.1176992,15.2526387 C16.1095234,15.2537168 16.1013477,15.2547051 16.0933516,15.2563672 C16.0878711,15.2574453 16.0826152,15.2591074 16.0772246,15.2605 C16.0709805,15.2620723 16.0646914,15.2634199 16.058627,15.2653066 C16.0546738,15.2665195 16.0509453,15.2681816 16.0470371,15.2695293 L16.0470371,15.0328359 C16.0470371,14.0838164 16.8191094,13.3117891 17.7681289,13.3117891 L17.9417969,13.3117891 C18.8907715,13.3117891 19.662709,14.0838164 19.662709,15.0328359 L19.662709,15.2665645 C19.6558809,15.2643633 19.6489629,15.2626563 19.6419551,15.2609043 C19.6386309,15.2599609 19.6353066,15.2588828 19.6319375,15.2580293 C19.125668,15.1428945 18.9600859,14.4672246 18.958873,14.4621035 C18.9273828,14.3229355 18.8172793,14.215123 18.6774375,14.1865527 C18.5375957,14.1578926 18.3940703,14.2138652 18.3104258,14.3294941 C17.6528145,15.2385781 16.186834,15.249 16.1676074,15.249 Z M19.914541,16.7184395 L19.914541,16.2290605 C19.990998,16.2836406 20.0411309,16.3729004 20.0411309,16.4737949 C20.0411309,16.5746895 19.990998,16.6638594 19.914541,16.7184395 Z M20.546502,5.64883594 C21.5984375,7.27392969 22.2007949,9.16576953 22.266875,11.1368066 L18.2792949,11.1368066 C18.2498262,9.50214453 18.0213984,7.92552148 17.6140918,6.48968359 C18.730625,6.2679043 19.7261387,5.98449219 20.546502,5.64883594 Z M17.5529082,11.1368965 L13.8360273,11.1368965 C13.835623,11.1368516 13.8352637,11.1368965 13.8349043,11.1368965 C13.3394609,10.589209 12.6429922,10.2273633 11.8631484,10.167168 L11.8631484,7.04419922 C13.6452441,7.02645508 15.3649883,6.87825781 16.8971836,6.6207207 C17.2981113,8.0093457 17.523125,9.54270898 17.5529082,11.1368965 Z M14.3493945,14.9291113 C14.3493945,15.1427148 14.2051055,15.3228066 14.0089316,15.3781953 L14.0089316,14.4798926 C14.2051055,14.5353711 14.3493945,14.7155078 14.3493945,14.9291113 Z M11.8631035,0.746466797 C13.3083301,0.900818359 14.6680254,1.97310352 15.7248574,3.80645508 C16.0957324,4.44978125 16.4141836,5.16053516 16.676707,5.92294922 C15.2125234,6.16269727 13.5693262,6.30069727 11.8631035,6.3178125 L11.8631035,0.746466797 Z M11.632834,10.8836719 C12.8698477,10.8836719 13.8761875,11.8901016 13.8761875,13.1271602 L13.8761875,13.5709434 C13.8737617,13.5690117 13.8712012,13.5673047 13.8687305,13.565373 C13.8634746,13.5612402 13.8581289,13.5571973 13.8526035,13.5533789 C13.8483359,13.5504141 13.8439336,13.5476738 13.8395313,13.5448887 C13.8340957,13.5414297 13.8287051,13.5380156 13.8230449,13.5348711 C13.8178789,13.5319512 13.8125332,13.5293906 13.8072324,13.5267402 C13.8021562,13.5242246 13.797125,13.5216641 13.7919141,13.5193281 C13.7855352,13.516498 13.7789316,13.5141621 13.772418,13.5116914 C13.7678809,13.5099844 13.7633887,13.5082324 13.7588066,13.5067051 C13.7514844,13.5042793 13.7439375,13.5023477 13.7364355,13.500416 C13.7331113,13.4994727 13.729832,13.4983496 13.726418,13.497541 C13.0365527,13.3406738 12.8180078,12.4412031 12.816166,12.4333867 C12.7846758,12.2942187 12.6745723,12.1864062 12.5347305,12.1578359 C12.3949336,12.1290859 12.2513633,12.1851484 12.1677187,12.3007773 C11.3173027,13.4764727 9.43871484,13.4885117 9.41391797,13.4885117 C9.41387305,13.4885117 9.41382813,13.4885117 9.41382813,13.4885117 C9.41333398,13.4885117 9.41297461,13.4885117 9.41252539,13.4885117 C9.40003711,13.4885117 9.38763867,13.4891406 9.37546484,13.4903535 C9.37164648,13.4908027 9.36796289,13.4915664 9.36414453,13.4921055 C9.35592383,13.4932285 9.34756836,13.4942168 9.33948242,13.495834 C9.33431641,13.4969121 9.32928516,13.4985293 9.32411914,13.4997871 C9.31765039,13.5014043 9.31104687,13.5028418 9.30475781,13.5047734 C9.29887305,13.5066152 9.29321289,13.5089961 9.28746289,13.5111074 C9.28220703,13.5130391 9.27672656,13.5147461 9.27151562,13.5169023 C9.26486719,13.5197324 9.2585332,13.5230566 9.25219922,13.5261562 C9.24806641,13.5281777 9.24388867,13.5299297 9.2398457,13.5321309 C9.23328711,13.5356348 9.22717773,13.5396777 9.22088867,13.543541 C9.21729492,13.545832 9.21352148,13.5478535 9.20992773,13.5502344 C9.20408789,13.5541875 9.1985625,13.5585898 9.19290234,13.5629023 C9.18926367,13.5656426 9.18549023,13.5681582 9.18194141,13.5710781 C9.17861719,13.5738184 9.17551758,13.576918 9.17223828,13.579793 L9.17223828,13.1271152 C9.17223828,11.8900566 10.1785781,10.8836719 11.4155918,10.8836719 L11.632834,10.8836719 Z M5.4470918,11.1368516 C5.476875,9.54239453 5.70197852,8.0087168 6.10299609,6.61995703 C7.63734766,6.87785352 9.35893359,7.02636523 11.1368516,7.04424414 L11.1368516,10.1708965 C10.3755605,10.2421875 9.69692578,10.6016523 9.21154492,11.1392773 C9.19833789,11.1378398 9.18490625,11.1368965 9.17129492,11.1368965 L5.4470918,11.1368965 L5.4470918,11.1368516 Z M9.04937695,14.4761641 L9.04937695,15.3820586 C8.84574609,15.3317012 8.69422461,15.1480605 8.69422461,14.9291113 C8.69417969,14.710207 8.84574609,14.5265664 9.04937695,14.4761641 Z M11.1368516,0.746466797 L11.1368516,6.3178125 C9.43467188,6.3005625 7.79017187,6.16202344 6.32365234,5.92182617 C6.58613086,5.15986133 6.90444727,4.44955664 7.27514258,3.80645508 C8.33197461,1.97310352 9.69166992,0.900818359 11.1368516,0.746466797 Z M8.52675586,1.14380078 C7.83415039,1.71251172 7.19855078,2.48485352 6.64583203,3.44371094 C6.23511133,4.1562168 5.88575391,4.94576367 5.60144336,5.79276562 C4.5726875,5.59200977 3.65147461,5.33815625 2.88420898,5.03888672 C4.27508008,3.1887793 6.24715039,1.79930078 8.52675586,1.14380078 Z M2.45677734,5.65054297 C3.27507422,5.98494141 4.27076758,6.26727539 5.38622266,6.48883008 C4.97864648,7.92484766 4.75021875,9.50183008 4.72066016,11.1368516 L0.733125,11.1368516 C0.800283203,9.11958984 1.42447266,7.2410918 2.45677734,5.65054297 Z M4.79689258,18.7884844 C4.87132813,18.7974238 4.94693164,18.8025449 5.02374805,18.8025449 L5.35500195,18.8025449 C5.43172852,18.8025449 5.50733203,18.7974238 5.58172266,18.7884395 L5.58172266,18.9897344 L5.17715625,19.4095742 L4.79689258,19.0392832 L4.79689258,18.7884844 Z M5.35500195,18.076248 L5.02374805,18.076248 C4.38203906,18.076248 3.86000195,17.5542109 3.86000195,16.9125469 L3.86000195,15.9521172 C4.33298437,15.9009512 5.17059766,15.7353242 5.81657422,15.1958574 C5.96122266,15.443916 6.18493359,15.7121895 6.5186582,15.868832 L6.5186582,16.9125918 C6.51861328,17.5542109 5.99662109,18.076248 5.35500195,18.076248 Z M6.28942188,14.4620586 C6.25793164,14.3228906 6.14782813,14.2150781 6.00798633,14.1865078 C5.86814453,14.1578477 5.72457422,14.2138203 5.64101953,14.3294492 C4.98291406,15.2390723 3.51576563,15.2490449 3.49806641,15.2490449 C3.49761719,15.2490449 3.49725781,15.2490449 3.49685352,15.2490449 C3.48436523,15.2490449 3.4719668,15.2496738 3.45979297,15.2508867 C3.45597461,15.2513359 3.45229102,15.2520996 3.44847266,15.2526387 C3.44025195,15.2537168 3.43189648,15.25475 3.42381055,15.2563672 C3.41864453,15.2574453 3.41361328,15.2590625 3.40844727,15.2603203 C3.40197852,15.2619375 3.39541992,15.263375 3.38908594,15.2653066 C3.38517773,15.2665195 3.38149414,15.2681816 3.37763086,15.2695293 L3.37763086,15.0328359 C3.37763086,14.0838164 4.1496582,13.3117441 5.09867773,13.3117441 L5.27239063,13.3117441 C6.22136523,13.3117441 6.99330273,14.0838164 6.99330273,15.0328359 L6.99330273,15.2666094 L6.99321289,15.2666094 C6.98625,15.2643184 6.97901758,15.2626113 6.97191992,15.2607695 C6.96873047,15.2599609 6.96563086,15.2588379 6.96239648,15.2580742 C6.4562168,15.1429395 6.29063477,14.4671348 6.28942188,14.4620586 Z M0.733080078,11.8631484 L4.72057031,11.8631484 C4.72510742,12.1132734 4.73476562,12.363084 4.74855664,12.610873 C3.56437109,12.7811719 2.65119922,13.8021563 2.65119922,15.032791 L2.65119922,15.6753984 C2.4182793,15.8638906 2.26891406,16.1515703 2.26891406,16.4737051 C2.26891406,17.016541 2.69266211,17.4612227 3.22664844,17.49725 C3.37111719,17.9402695 3.67505859,18.3115938 4.07055078,18.5435703 L4.07055078,18.7480996 L3.6738457,18.9034395 C1.85626172,16.9829844 0.820408203,14.497502 0.733080078,11.8631484 Z M3.13361523,16.2209746 L3.13361523,16.7264355 C3.05050977,16.6728887 2.99521094,16.5797207 2.99521094,16.4737949 C2.99521094,16.3677793 3.05050977,16.2746113 3.13361523,16.2209746 Z M6.71725781,21.0089727 L6.71725781,22.2737031 L6.29166797,22.2737031 L4.4336543,22.2737031 L4.04629297,22.2737031 L3.72114844,22.2737031 L1.99529492,22.2737031 L1.99529492,21.3352402 C1.99529492,20.3227461 2.78681836,20.0293164 2.81758984,20.0184004 C2.82320508,20.0165137 2.82882031,20.0144922 2.8343457,20.012291 L4.20405859,19.4758789 L4.93188281,20.1847461 C4.99971484,20.2508262 5.09063672,20.287752 5.18524219,20.287752 C5.18712891,20.287752 5.18906055,20.287752 5.19099219,20.287707 C5.28761914,20.2862246 5.37970898,20.2461992 5.4466875,20.1765703 L6.13417187,19.4631211 L6.98395898,19.8038535 C6.82282422,20.133625 6.71725781,20.5330254 6.71725781,21.0089727 Z M10.2210742,17.8356016 L8.29356641,18.5904238 C8.04811328,18.674877 7.70841406,18.8697031 7.40707812,19.1909844 L6.30797461,18.7502109 L6.30797461,18.5436602 C6.70369141,18.3115937 7.00772266,17.9399551 7.15219141,17.4966211 C7.6805625,17.4548887 8.09793164,17.012543 8.09793164,16.4737051 C8.09793164,16.1532324 7.95018359,15.8668105 7.71950977,15.6782285 L7.71950977,15.032791 C7.71950977,13.7516641 6.72988086,12.6980215 5.47507812,12.5944766 C5.46124219,12.3522129 5.45167383,12.1078379 5.44704687,11.8631035 L8.72903906,11.8631035 C8.54773437,12.2468711 8.44585156,12.6752012 8.44585156,13.1270703 L8.44585156,13.9744766 C8.15579102,14.1923926 7.96779297,14.5391445 7.96779297,14.9291113 C7.96779297,15.5809277 8.49324414,16.112084 9.14281445,16.1220566 C9.31324805,16.6976855 9.70582031,17.1786191 10.2209844,17.4651758 L10.2209844,17.8356016 L10.2210742,17.8356016 Z M7.24495508,16.7184844 L7.24495508,16.2289258 C7.32145703,16.2835508 7.37163477,16.3728105 7.37163477,16.47375 C7.37163477,16.5746895 7.32145703,16.6639043 7.24495508,16.7184844 Z M12.1109824,18.0890508 C12.1109824,18.0895449 12.1109824,18.0900391 12.1109824,18.0903984 L12.1109824,18.1124102 L11.5159473,18.7298613 L10.9473711,18.1760645 L10.9473711,17.7191191 C11.069334,17.7394688 11.1943965,17.7505645 11.3221094,17.7505645 L11.7363789,17.7505645 C11.864002,17.7505645 11.9890195,17.7394688 12.1109824,17.719209 L12.1109824,18.0890508 Z M11.7363789,17.0243125 L11.3221094,17.0243125 C10.4694023,17.0243125 9.77567383,16.3306289 9.77567383,15.4779219 L9.77567383,14.1957617 C10.3552559,14.1423945 11.5013027,13.9409199 12.3384219,13.1894219 C12.5150996,13.5237754 12.8112695,13.9119453 13.2826797,14.1132852 L13.2826797,15.477877 C13.2826348,16.3306289 12.5889961,17.0243125 11.7363789,17.0243125 Z M15.6028945,19.1934551 C15.3016035,18.8713652 14.9615,18.6758652 14.7155078,18.5909629 L12.8372344,17.837668 L12.8372344,17.4651758 C13.3525332,17.1785742 13.7450156,16.6975059 13.9154043,16.1216973 C14.5581016,16.1039082 15.0756016,15.5759414 15.0756016,14.9291562 C15.0756016,14.5414355 14.889625,14.1964355 14.6023945,13.9782949 L14.6023945,13.1271152 C14.6023945,12.675291 14.5005566,12.246916 14.319207,11.8631484 L17.5528184,11.8631484 C17.5481016,12.1088711 17.5384883,12.3542344 17.5244727,12.597666 C16.2888516,12.7202578 15.3206055,13.7655449 15.3206055,15.032791 L15.3206055,15.6754883 C15.0877305,15.8639355 14.9384102,16.1516152 14.9384102,16.47375 C14.9384102,17.0166309 15.3621582,17.4613125 15.8961445,17.4972949 C16.0406133,17.9403145 16.3445996,18.3116387 16.7400918,18.5436152 L16.7400918,18.7481445 L15.6028945,19.1934551 Z M15.803291,16.2209746 L15.803291,16.7264355 C15.7201406,16.6728887 15.6648867,16.5797207 15.6648867,16.4737949 C15.6648867,16.3677793 15.7201855,16.2745664 15.803291,16.2209746 Z M21.0125664,22.2737031 L18.9613438,22.2737031 L17.103375,22.2737031 L16.7159238,22.2737031 L16.3907793,22.2737031 L16.2905137,22.2737031 L16.2905137,21.0089277 C16.2905137,20.5349121 16.1858906,20.1368594 16.0257891,19.8078965 L16.8737344,19.475834 L17.6014687,20.1847012 C17.6693008,20.2507813 17.7602227,20.287752 17.854873,20.287752 C17.8567598,20.287752 17.8586914,20.287752 17.8605781,20.287707 C17.9572051,20.2862246 18.0492949,20.2461992 18.1163184,20.1765703 L18.8038477,19.4631211 L20.1706406,20.011168 C20.1770195,20.0137734 20.1805684,20.0151211 20.1871719,20.0173672 C20.2208633,20.0293164 21.0125664,20.322791 21.0125664,21.3352852 L21.0125664,22.2737031 Z" id="Shape"></path>
            </g>
        </g>
    </g>
</svg>