<?xml version="1.0" encoding="UTF-8"?>
<svg width="23px" height="23px" viewBox="0 0 23 23" version="1.1" xmlns="http://www.w3.org/2000/svg" xmlns:xlink="http://www.w3.org/1999/xlink">
    <!-- Generator: Sketch 52.6 (67491) - http://www.bohemiancoding.com/sketch -->
    <title>statistics copy</title>
    <desc>Created with Sketch.</desc>
    <g id="-Dashboard" stroke="none" stroke-width="1" fill="none" fill-rule="evenodd">
        <g id="Kitle-ve-Bütçe-Belirleme" transform="translate(-19.000000, -344.000000)" fill="#FFFFFF" fill-rule="nonzero">
            <g id="statistics-copy" transform="translate(19.000000, 344.000000)">
                <path d="M3.4140625,10.78125 C3.95803833,10.78125 4.45217896,10.564888 4.81594085,10.2141113 L6.79917146,11.2057266 C6.78899382,11.2874985 6.78320312,11.3704987 6.78320312,11.4550781 C6.78320312,12.5697021 7.69006348,13.4765625 8.8046875,13.4765625 C9.91931152,13.4765625 10.8261719,12.5697021 10.8261719,11.4550781 C10.8261719,11.1434326 10.7551041,10.8479309 10.6285858,10.5840149 L13.3242493,7.88835142 C13.5881653,8.0148697 13.883667,8.0859375 14.1953125,8.0859375 C15.3099365,8.0859375 16.2167969,7.17907715 16.2167969,6.06445312 C16.2167969,5.85388184 16.1843338,5.65085603 16.124321,5.45993806 L18.4662247,3.703598 C18.7869949,3.91785432 19.1719894,4.04296875 19.5859375,4.04296875 C20.7005615,4.04296875 21.6074219,3.1361084 21.6074219,2.02148438 C21.6074219,0.906860352 20.7005615,0 19.5859375,0 C18.4713135,0 17.5644531,0.906860352 17.5644531,2.02148438 C17.5644531,2.23205566 17.5969162,2.43508147 17.656929,2.62599944 L15.3150253,4.3823395 C14.9942551,4.16808318 14.6092606,4.04296875 14.1953125,4.04296875 C13.0806885,4.04296875 12.1738281,4.9498291 12.1738281,6.06445312 C12.1738281,6.37609863 12.2448959,6.67160034 12.3714142,6.93551636 L9.67575073,9.63117983 C9.41183472,9.50466155 9.11633301,9.43359375 8.8046875,9.43359375 C8.26071167,9.43359375 7.76657104,9.64995574 7.40280915,10.0007324 L5.41957854,9.00911712 C5.42975618,8.92734529 5.43554688,8.84434507 5.43554688,8.75976562 C5.43554688,7.6451416 4.52868652,6.73828125 3.4140625,6.73828125 C2.29943848,6.73828125 1.39257812,7.6451416 1.39257812,8.75976562 C1.39257812,9.87438965 2.29943848,10.78125 3.4140625,10.78125 Z M19.5859375,1.34765625 C19.9574203,1.34765625 20.2597656,1.65000154 20.2597656,2.02148438 C20.2597656,2.39296721 19.9574203,2.6953125 19.5859375,2.6953125 C19.2144547,2.6953125 18.9121094,2.39296721 18.9121094,2.02148438 C18.9121094,1.65000154 19.2144547,1.34765625 19.5859375,1.34765625 Z M14.1953125,5.390625 C14.5667953,5.390625 14.8691406,5.69297029 14.8691406,6.06445312 C14.8691406,6.43593596 14.5667953,6.73828125 14.1953125,6.73828125 C13.8238297,6.73828125 13.5214844,6.43593596 13.5214844,6.06445312 C13.5214844,5.69297029 13.8238297,5.390625 14.1953125,5.390625 Z M8.8046875,10.78125 C9.17617034,10.78125 9.47851562,11.0835953 9.47851562,11.4550781 C9.47851562,11.826561 9.17617034,12.1289062 8.8046875,12.1289062 C8.43320466,12.1289062 8.13085938,11.826561 8.13085938,11.4550781 C8.13085938,11.0835953 8.43320466,10.78125 8.8046875,10.78125 Z M3.4140625,8.0859375 C3.78554534,8.0859375 4.08789062,8.38828279 4.08789062,8.75976562 C4.08789062,9.13124846 3.78554534,9.43359375 3.4140625,9.43359375 C3.04257966,9.43359375 2.74023438,9.13124846 2.74023438,8.75976562 C2.74023438,8.38828279 3.04257966,8.0859375 3.4140625,8.0859375 Z" id="Shape"></path>
                <path d="M22.3261719,21.6523438 L21.6074219,21.6523438 L21.6074219,7.41210938 C21.6074219,7.03992463 21.3057785,6.73828125 20.9335938,6.73828125 L18.2382812,6.73828125 C17.8660965,6.73828125 17.5644531,7.03992463 17.5644531,7.41210938 L17.5644531,21.6523438 L16.2167969,21.6523438 L16.2167969,11.4550781 C16.2167969,11.0828934 15.9151535,10.78125 15.5429688,10.78125 L12.8476562,10.78125 C12.4754715,10.78125 12.1738281,11.0828934 12.1738281,11.4550781 L12.1738281,21.6523438 L10.8261719,21.6523438 L10.8261719,16.8457031 C10.8261719,16.4735184 10.5245285,16.171875 10.1523438,16.171875 L7.45703125,16.171875 C7.08484651,16.171875 6.78320312,16.4735184 6.78320312,16.8457031 L6.78320312,21.6523438 L5.43554688,21.6523438 L5.43554688,14.1503906 C5.43554688,13.7782059 5.13390349,13.4765625 4.76171875,13.4765625 L2.06640625,13.4765625 C1.69422151,13.4765625 1.39257812,13.7782059 1.39257812,14.1503906 L1.39257812,21.6523438 L0.673828125,21.6523438 C0.301643383,21.6523438 0,21.9539871 0,22.3261719 C0,22.6983566 0.301643383,23 0.673828125,23 L22.3261719,23 C22.6983566,23 23,22.6983566 23,22.3261719 C23,21.9539871 22.6983566,21.6523438 22.3261719,21.6523438 Z M18.9121094,8.0859375 L20.2597656,8.0859375 L20.2597656,21.6523438 L18.9121094,21.6523438 L18.9121094,8.0859375 Z M13.5214844,12.1289062 L14.8691406,12.1289062 L14.8691406,21.6523438 L13.5214844,21.6523438 L13.5214844,12.1289062 Z M8.13085938,17.5195312 L9.47851562,17.5195312 L9.47851562,21.6523438 L8.13085938,21.6523438 L8.13085938,17.5195312 Z M2.74023438,14.8242187 L4.08789062,14.8242187 L4.08789062,21.6523438 L2.74023438,21.6523438 L2.74023438,14.8242187 Z" id="Shape"></path>
            </g>
        </g>
    </g>
</svg>