<?xml version="1.0" encoding="UTF-8"?>
<svg width="25px" height="25px" viewBox="0 0 25 25" version="1.1" xmlns="http://www.w3.org/2000/svg" xmlns:xlink="http://www.w3.org/1999/xlink">
    <!-- Generator: Sketch 52.6 (67491) - http://www.bohemiancoding.com/sketch -->
    <title>money</title>
    <desc>Created with Sketch.</desc>
    <g id="-Dashboard" stroke="none" stroke-width="1" fill="none" fill-rule="evenodd">
        <g id="Kitle-ve-Bütçe-Belirleme" transform="translate(-19.000000, -293.000000)" fill="#FFFFFF">
            <g id="money" transform="translate(19.000000, 293.000000)">
                <path d="M21.2354906,8.24445043 C21.2352296,8.24445043 21.2349165,8.24445043 21.2346555,8.24445043 L0.35782881,8.24445043 C0.160438413,8.24423491 0.000208768267,8.40921336 3.09086558e-16,8.61298491 C3.09086558e-16,8.61325431 3.09086558e-16,8.61357759 3.09086558e-16,8.61384698 L3.09086558e-16,18.9586746 C-0.000208768267,19.1624461 0.15960334,19.3278556 0.356993737,19.3280711 C0.357254697,19.3280711 0.35756785,19.3280711 0.35782881,19.3280711 L14.554071,19.3280711 C14.7516701,19.3280711 14.9118998,19.1626616 14.9118998,18.9586746 C14.9118998,18.7546875 14.7516701,18.589278 14.554071,18.589278 L0.71565762,18.589278 L0.71565762,8.98324353 L20.8768267,8.98324353 L20.8768267,9.90695043 C20.876618,10.110722 21.0364301,10.2761315 21.2338205,10.276347 C21.2340814,10.276347 21.2343946,10.276347 21.2346555,10.276347 C21.4320459,10.2765625 21.5922756,10.1115841 21.5924843,9.9078125 C21.5924843,9.9075431 21.5924843,9.90721983 21.5924843,9.90695043 L21.5924843,8.61384698 C21.5926931,8.41007543 21.432881,8.24471983 21.2354906,8.24445043 Z" id="Path"></path>
                <path d="M18.8079332,6.52936422 L2.10647182,2.65005388 C2.01377871,2.62866379 1.91664927,2.64601293 1.83632568,2.69832974 C1.75610647,2.75107759 1.6993737,2.83442888 1.67849687,2.93022629 L0.8434238,6.80953664 C0.800521921,7.00878233 0.92223382,7.20619612 1.11524008,7.25048491 C1.30824635,7.29477371 1.49947808,7.16912716 1.54237996,6.96988147 L2.2993737,3.45220905 L18.6509395,7.25005388 C18.6768267,7.25625 18.7032881,7.25932112 18.7298539,7.2591056 C18.927453,7.25872845 19.0873695,7.09304957 19.0870564,6.8890625 C19.0867432,6.71659483 18.9708768,6.56734914 18.8079332,6.52936422 Z" id="Path"></path>
                <path d="M16.7799582,4.39186422 L6.75908142,0.0815193966 C6.58491649,0.00657327586 6.384238,0.0835668103 6.29979123,0.2578125 L5.46471816,1.98195043 C5.3704071,2.16201509 5.43533403,2.38696121 5.60981211,2.48432112 C5.784238,2.58168103 6.00213987,2.51465517 6.09645094,2.33453664 C6.10015658,2.32747845 6.10365344,2.32025862 6.10688935,2.31293103 L6.10688935,2.3137931 L6.79206681,0.898275862 L16.5035491,5.07543103 C16.6864301,5.15420259 16.8965553,5.06508621 16.9728601,4.8762931 C17.0491649,4.68760776 16.9628392,4.47068966 16.7799582,4.39186422 Z" id="Path"></path>
                <path d="M17.0329854,9.96858836 L13.7189979,9.96858836 C13.5213987,9.96858836 13.3611691,10.1339978 13.3611691,10.3379849 C13.3611691,10.541972 13.5213987,10.7073815 13.7189979,10.7073815 L17.0329854,10.7073815 C17.2305846,10.7073815 17.3908142,10.541972 17.3908142,10.3379849 C17.3908142,10.1339978 17.2305846,9.96858836 17.0329854,9.96858836 Z" id="Path"></path>
                <path d="M10.3787056,9.99315733 C8.34942589,9.99315733 6.70438413,11.6913793 6.70438413,13.7862608 C6.70647182,15.8802263 8.35031315,17.5772091 10.3787056,17.5793642 C12.4079854,17.5793642 14.0530271,15.8811422 14.0530271,13.7862608 C14.0530271,11.6913793 12.4079854,9.99315733 10.3787056,9.99315733 Z M10.3787056,16.8897091 C8.71837161,16.8897091 7.37244259,15.5002694 7.37244259,13.7862608 C7.37426931,12.0730603 8.71915449,10.6846983 10.3787056,10.6828125 C12.0390397,10.6828125 13.3849687,12.0722522 13.3849687,13.7862608 C13.3849687,15.5002694 12.0390397,16.8897091 10.3787056,16.8897091 Z" id="Shape" fill-rule="nonzero"></path>
                <path d="M20.3995825,11.2000539 C18.1866388,11.2000539 15.8066806,11.7397091 15.8066806,12.9241918 L15.8066806,23.2690194 C15.8066806,24.4535022 18.1866388,24.9931573 20.3995825,24.9931573 C22.6125261,24.9931573 24.9924843,24.4535022 24.9924843,23.2690194 L24.9924843,12.9241918 C24.9924843,11.7397091 22.6125261,11.2000539 20.3995825,11.2000539 Z M24.1574113,23.2625539 C24.0943633,23.501778 22.8421712,24.1310884 20.3995825,24.1310884 C17.9569937,24.1310884 16.7048017,23.501778 16.6417537,23.2690194 L16.6417537,22.5914332 C17.5302714,23.0535022 18.9979123,23.2690194 20.3995825,23.2690194 C21.8012526,23.2690194 23.2693111,23.051347 24.1574113,22.5910022 L24.1574113,23.2625539 Z M24.1574113,21.5384159 C24.0943633,21.7776401 22.8421712,22.4069504 20.3995825,22.4069504 C17.9569937,22.4069504 16.7048017,21.7776401 16.6417537,21.5448815 L16.6417537,20.8672953 C17.5302714,21.3293642 18.9979123,21.5448815 20.3995825,21.5448815 C21.8012526,21.5448815 23.2693111,21.3272091 24.1574113,20.8668642 L24.1574113,21.5384159 Z M24.1574113,19.814278 C24.0943633,20.0535022 22.8421712,20.6828125 20.3995825,20.6828125 C17.9569937,20.6828125 16.7048017,20.0535022 16.6417537,19.8207435 L16.6417537,19.1431573 C17.5302714,19.6052263 18.9979123,19.8207435 20.3995825,19.8207435 C21.8012526,19.8207435 23.2693111,19.6030711 24.1574113,19.1427263 L24.1574113,19.814278 Z M24.1574113,18.0901401 C24.0943633,18.3293642 22.8421712,18.9586746 20.3995825,18.9586746 C17.9569937,18.9586746 16.7048017,18.3293642 16.6417537,18.0966056 L16.6417537,17.4190194 C17.5302714,17.8810884 18.9979123,18.0966056 20.3995825,18.0966056 C21.8012526,18.0966056 23.2693111,17.8789332 24.1574113,17.4185884 L24.1574113,18.0901401 Z M24.1574113,16.3660022 C24.0943633,16.6052263 22.8421712,17.2345366 20.3995825,17.2345366 C17.9569937,17.2345366 16.7048017,16.6052263 16.6417537,16.3724677 L16.6417537,15.6948815 C17.5302714,16.1547953 18.9979123,16.3724677 20.3995825,16.3724677 C21.8012526,16.3724677 23.2693111,16.1547953 24.1574113,15.6944504 L24.1574113,16.3660022 Z M24.1574113,14.6418642 C24.0943633,14.8810884 22.8421712,15.5103987 20.3995825,15.5103987 C17.9569937,15.5103987 16.7048017,14.8810884 16.6417537,14.6483297 L16.6417537,13.9707435 C17.5302714,14.4306573 18.9979123,14.6483297 20.3995825,14.6483297 C21.8012526,14.6483297 23.2693111,14.4306573 24.1574113,13.9703125 L24.1574113,14.6418642 Z M20.3995825,13.7862608 C17.9607516,13.7862608 16.708977,13.1586746 16.6417537,12.9319504 L16.6417537,12.9293642 C16.708977,12.689278 17.9607516,12.0621228 20.3995825,12.0621228 C22.8212944,12.0621228 24.073904,12.6802263 24.1574113,12.9241918 C24.073904,13.1681573 22.8212944,13.7862608 20.3995825,13.7862608 Z" id="Shape" fill-rule="nonzero"></path>
                <path d="M7.03841336,16.8647091 L3.8822547,16.8647091 L2.38580376,15.1750539 L2.38580376,12.3733297 L4.03841336,10.7073815 L7.03841336,10.7073815 C7.23601253,10.7073815 7.39624217,10.541972 7.39624217,10.3379849 C7.39624217,10.1339978 7.23601253,9.96858836 7.03841336,9.96858836 L3.89311065,9.96858836 C3.79958246,9.96837284 3.70965553,10.0059806 3.64258873,10.0733297 L1.77745303,11.951347 C1.70777662,12.0353987 1.66957203,12.1424569 1.6697286,12.2530711 L1.6697286,15.3185884 C1.6697286,15.4107759 1.70307933,15.4996228 1.76325678,15.5677263 L3.45970772,17.4832435 C3.52750522,17.5598599 3.62343424,17.603556 3.72400835,17.6035022 L7.03841336,17.6035022 C7.23601253,17.6035022 7.39624217,17.4380927 7.39624217,17.2341056 C7.39624217,17.0301185 7.23606472,16.8647091 7.03841336,16.8647091 Z" id="Path"></path>
            </g>
        </g>
    </g>
</svg>