<?xml version="1.0" encoding="UTF-8"?>
<svg width="70px" height="70px" viewBox="0 0 70 70" version="1.1" xmlns="http://www.w3.org/2000/svg" xmlns:xlink="http://www.w3.org/1999/xlink">
    <!-- Generator: Sketch 52.6 (67491) - http://www.bohemiancoding.com/sketch -->
    <title>Group 5</title>
    <desc>Created with Sketch.</desc>
    <g id="-Dashboard" stroke="none" stroke-width="1" fill="none" fill-rule="evenodd">
        <g id="Hesap-Ayarları" transform="translate(-315.000000, -422.000000)">
            <g id="Group-5" transform="translate(316.000000, 423.000000)">
                <circle id="Oval-Copy-4" stroke="#DDBB74" stroke-width="0.8" cx="34" cy="34" r="34"></circle>
                <g id="invitation" transform="translate(18.000000, 17.000000)" fill="#DDBB74">
                    <path d="M31.328065,32.266 L17.9800325,21.9371055 C16.7964878,21.01625 15.2022114,21.0148555 14.0200325,21.9357109 L0.671934959,32.266 C0.365268293,32.5026055 0.305626016,32.946 0.537365854,33.2576445 C0.769105691,33.57075 1.20474797,33.6287891 1.50861789,33.3950391 L14.8580813,23.0632891 C15.5421138,22.5348945 16.4565203,22.5334336 17.1419837,23.0646836 L30.4914472,33.3950391 C30.6163252,33.4927891 30.764813,33.5395391 30.9105041,33.5395391 C31.1186341,33.5395391 31.3267642,33.4417891 31.4627642,33.2576445 C31.694374,32.946 31.6347317,32.5026055 31.328065,32.266 Z" id="Path"></path>
                    <path d="M31.7540813,11.8673945 C31.5251382,11.55575 31.0866992,11.4933945 30.7828293,11.73 L17.358439,22.1028555 C17.0532033,22.338 16.9921301,22.7828555 17.2238699,23.0945 C17.358439,23.2786445 17.5665691,23.375 17.7761301,23.375 C17.923187,23.375 18.0703089,23.32825 18.195187,23.2318945 L31.6195772,12.8590391 C31.924748,12.6238945 31.9857561,12.1791055 31.7540813,11.8673945 Z" id="Path"></path>
                    <path d="M14.641626,22.1013945 L1.21723577,11.7285391 C0.914731707,11.4933945 0.476292683,11.5514336 0.24598374,11.8659336 C0.0142439024,12.1775781 0.0753170732,12.6224336 0.380552846,12.8575781 L13.8049431,23.2304336 C13.9298211,23.3281836 14.0783089,23.3749336 14.224,23.3749336 C14.4321301,23.3749336 14.641626,23.2785781 14.7762602,23.0930391 C15.007935,22.7813945 14.9468618,22.3366055 14.641626,22.1013945 Z" id="Path"></path>
                    <path d="M31.2087805,11.0741055 L28.9318374,9.1375 C28.6390894,8.88814453 28.2020163,8.92639453 27.9549919,9.22675 C27.7093984,9.52710547 27.7482276,9.97335547 28.0424065,10.2241055 L30.3179837,12.1607109 C30.4789593,12.2967109 30.5691057,12.4964609 30.5691057,12.7061055 L30.5691057,31.875 C30.5691057,32.2646055 30.2569106,32.5833555 29.8753171,32.5833555 L2.12468293,32.5833555 C1.74308943,32.5833555 1.43089431,32.2646055 1.43089431,31.875 L1.43089431,12.7061055 C1.43089431,12.495 1.52110569,12.2967109 1.68065041,12.1607109 L3.95622764,10.2241055 C4.2504065,9.97335547 4.29060163,9.52710547 4.04500813,9.22675 C3.79941463,8.925 3.36097561,8.88535547 3.0681626,9.13610547 L0.789853659,11.0741055 C0.315317073,11.4807109 0.0433821138,12.0757109 0.0433821138,12.7061055 L0.0433821138,31.875 C0.0433821138,33.0466055 0.977170732,34 2.12468293,34 L29.8753821,34 C31.0228943,34 31.9566829,33.0466055 31.9566829,31.875 L31.9566829,12.7061055 C31.9566179,12.07425 31.6846829,11.4806445 31.2087805,11.0741055 Z" id="Path"></path>
                    <path d="M28.4878049,0 L3.51219512,0 C3.12923577,0 2.8184065,0.317355469 2.8184065,0.708355469 L2.8184065,14.2913555 C2.8184065,14.6823555 3.12923577,14.9997109 3.51219512,14.9997109 C3.89515447,14.9997109 4.20598374,14.6823555 4.20598374,14.2913555 L4.20598374,1.41664453 L27.7940813,1.41664453 L27.7940813,14.2983945 C27.7940813,14.6893945 28.1049106,15.00675 28.4878699,15.00675 C28.8708293,15.00675 29.1816585,14.6893945 29.1816585,14.2983945 L29.1816585,0.708355469 C29.1815935,0.317355469 28.8707642,0 28.4878049,0 Z" id="Path"></path>
                    <path d="M16,5.66664453 C15.6170407,5.66664453 15.3062114,5.984 15.3062114,6.375 L15.3062114,14.875 C15.3062114,15.266 15.6170407,15.5833555 16,15.5833555 C16.3829593,15.5833555 16.6937886,15.266 16.6937886,14.875 L16.6937886,6.375 C16.6937886,5.984 16.3829593,5.66664453 16,5.66664453 Z" id="Path"></path>
                    <path d="M20.1626016,9.91664453 L11.8373984,9.91664453 C11.454439,9.91664453 11.1436098,10.234 11.1436098,10.625 C11.1436098,11.016 11.454439,11.3333555 11.8373984,11.3333555 L20.1626016,11.3333555 C20.545561,11.3333555 20.8563902,11.016 20.8563902,10.625 C20.8563902,10.234 20.545561,9.91664453 20.1626016,9.91664453 Z" id="Path"></path>
                </g>
            </g>
        </g>
    </g>
</svg>