<?xml version="1.0" encoding="UTF-8"?>
<svg width="70px" height="70px" viewBox="0 0 70 70" version="1.1" xmlns="http://www.w3.org/2000/svg" xmlns:xlink="http://www.w3.org/1999/xlink">
    <!-- Generator: Sketch 52.6 (67491) - http://www.bohemiancoding.com/sketch -->
    <title>Group 7</title>
    <desc>Created with Sketch.</desc>
    <g id="-Dashboard" stroke="none" stroke-width="1" fill="none" fill-rule="evenodd">
        <g id="Hesap-Ayarları" transform="translate(-675.000000, -422.000000)">
            <g id="Group-7" transform="translate(675.000000, 423.000000)">
                <circle id="Oval-Copy-4" stroke="#DDBB74" stroke-width="0.8" cx="34.9787238" cy="34" r="34"></circle>
                <g id="language" transform="translate(14.978724, 14.000000)" fill="#DDBB74" fill-rule="nonzero">
                    <path d="M20,0 C8.95442708,0 0,8.95442708 0,20 C0,31.0455729 8.95442708,40 20,40 C31.0455729,40 40,31.0455729 40,20 C39.9876302,8.95963542 31.0403646,0.0123698333 20,0 Z M37.2972005,27.0065104 L31.609375,27.9879557 C32.2604167,25.6002604 32.6119792,23.1409505 32.6559245,20.6666667 L38.6500651,20.6666667 C38.5748698,22.843099 38.116862,24.9892578 37.2972005,27.0065104 Z M1.34993492,20.6666667 L7.3440755,20.6666667 C7.38802083,23.1409505 7.73958333,25.6002604 8.390625,27.9879557 L2.7027995,27.0065104 C1.883138,24.9892578 1.42513017,22.843099 1.34993492,20.6666667 Z M2.7027995,12.9934896 L8.390625,12.0120443 C7.73958333,14.3997396 7.38802083,16.8590495 7.3440755,19.3333333 L1.34993492,19.3333333 C1.42513017,17.156901 1.883138,15.0107422 2.7027995,12.9934896 Z M20.6666667,10.7041016 C23.0621745,10.7347005 25.4518229,10.9527995 27.8134766,11.3567708 L30.1666667,11.7626953 C30.8896484,14.2229817 31.2786458,16.7692057 31.3232422,19.3333333 L20.6666667,19.3333333 L20.6666667,10.7041016 Z M28.0406901,10.0426432 C25.6041667,9.62630208 23.1383463,9.40136717 20.6666667,9.37076825 L20.6666667,1.37076825 C24.4886068,1.73795575 27.8085938,5.23730467 29.6901042,10.3300782 L28.0406901,10.0426432 Z M19.3333333,9.37076825 C16.8616537,9.40136717 14.3964843,9.62630208 11.9599609,10.0426432 L10.3098958,10.328125 C12.1914063,5.2340495 15.5113933,1.73339842 19.3333333,1.3678385 L19.3333333,9.37076825 Z M12.1871745,11.3567708 C14.5485026,10.9527995 16.9378255,10.7347005 19.3333333,10.7041016 L19.3333333,19.3333333 L8.67675783,19.3333333 C8.72135417,16.7692057 9.11035158,14.2229817 9.83333333,11.7626953 L12.1871745,11.3567708 Z M8.67675783,20.6666667 L19.3333333,20.6666667 L19.3333333,29.2958984 C16.9378255,29.2652995 14.5481771,29.0472005 12.1865234,28.6432292 L9.83333333,28.2373047 C9.11035158,25.7770182 8.72135417,23.2307942 8.67675783,20.6666667 Z M11.9593099,29.9573567 C14.3958333,30.374349 16.8613282,30.6002604 19.3333333,30.6328125 L19.3333333,38.6328125 C15.5113933,38.2652995 12.1914063,34.7659505 10.3098958,29.6731771 L11.9593099,29.9573567 Z M20.6666667,30.6328125 C23.1383463,30.6002604 25.6035157,30.374349 28.0400391,29.9573568 L29.6901042,29.671875 C27.8085938,34.7659505 24.4886068,38.2666016 20.6666667,38.6321615 L20.6666667,30.6328125 Z M27.8128255,28.6432292 C25.4514974,29.0472005 23.0621745,29.2652995 20.6666667,29.2958984 L20.6666667,20.6666667 L31.3232422,20.6666667 C31.2786458,23.2307942 30.8896484,25.7770182 30.1666667,28.2373047 L27.8128255,28.6432292 Z M32.6559245,19.3333333 C32.6119792,16.8590495 32.2604167,14.3997396 31.609375,12.0120443 L37.2972005,12.9934896 C38.116862,15.0107422 38.5748698,17.156901 38.6500651,19.3333333 L32.6559245,19.3333333 Z M36.6227213,11.5240885 L31.1705729,10.5833333 C30.1904297,7.38574217 28.3567708,4.5159505 25.8665365,2.28320317 C30.523112,3.83723958 34.3847657,7.15462242 36.6227213,11.5240885 Z M14.1334635,2.28320317 C11.6432292,4.5159505 9.80957033,7.38574217 8.82942708,10.5833333 L3.37727867,11.5240885 C5.61523433,7.15462242 9.476888,3.83723958 14.1334635,2.28320317 Z M3.37727867,28.4759115 L8.82942708,29.4166667 C9.80957033,32.6142578 11.6432292,35.4840495 14.1334635,37.7167968 C9.476888,36.1627604 5.61523433,32.8453776 3.37727867,28.4759115 Z M25.8665365,37.7167968 C28.3567708,35.4840495 30.1904297,32.6142578 31.1705729,29.4166667 L36.6227213,28.4759115 C34.3847657,32.8453776 30.523112,36.1627604 25.8665365,37.7167968 Z" id="Shape"></path>
                </g>
            </g>
        </g>
    </g>
</svg>