<svg xmlns="http://www.w3.org/2000/svg" width="20" height="20" viewBox="0 0 20 20">
    <path fill="#373737" fill-rule="nonzero" d="M9.945 18.958a.458.458 0 0 0 .65-.004l8.36-8.36a.464.464 0 0 0 .004-.65l-8.191-8.192c-.275-.275-.862-.532-1.252-.547L2.187.91A1.204 1.204 0 0 0 .912 2.186l.294 7.33c.015.385.276.98.548 1.25l8.191 8.192zm-.643.644L1.11 11.41c-.433-.433-.79-1.244-.814-1.858l-.294-7.33A2.114 2.114 0 0 1 2.224.002l7.329.294c.618.025 1.422.377 1.858.813L19.603 9.3c.53.53.53 1.403-.004 1.937l-8.36 8.36a1.368 1.368 0 0 1-1.937.005zM2.542 2.54a1.821 1.821 0 1 1 2.575 2.576A1.821 1.821 0 0 1 2.54 2.54zm.643.644a.91.91 0 1 0 1.288 1.288.91.91 0 0 0-1.288-1.288zm2.898 8.692c-.43.43-1.073-.215-.644-.644l5.794-5.795c.43-.429 1.074.215.644.644l-5.794 5.795zm3.863 1.288c-.43.429-1.073-.215-.644-.644l4.507-4.507c.43-.43 1.073.215.644.644l-4.507 4.507z" opacity=".5"/>
</svg>
