<?xml version="1.0" encoding="utf-8"?>
<!-- Generator: Adobe Illustrator 22.1.0, SVG Export Plug-In . SVG Version: 6.00 Build 0)  -->
<svg version="1.1" id="Layer_1" xmlns="http://www.w3.org/2000/svg" xmlns:xlink="http://www.w3.org/1999/xlink" x="0px" y="0px"
	 viewBox="0 0 18 20" style="enable-background:new 0 0 18 20;" xml:space="preserve">
<style type="text/css">
	.st0{fill:#373737;}
</style>
<path class="st0" d="M15.2,2.3h-2V1c0-0.3-0.2-0.5-0.5-0.5c-0.3,0-0.5,0.2-0.5,0.5v1.3H6V1c0-0.3-0.2-0.5-0.5-0.5S5,0.7,5,1v1.3H3
	c-1.4,0-2.5,1.1-2.5,2.5V17c0,1.4,1.1,2.5,2.5,2.5h12.2c1.4,0,2.5-1.1,2.5-2.5V4.8C17.7,3.4,16.6,2.3,15.2,2.3z M3,3.3
	c0,0,1.5,0,2,0v1.3c0,0.3,0.2,0.5,0.5,0.5S6,4.9,6,4.6V3.3c2.3,0,3.9,0,6.2,0v1.3c0,0.3,0.2,0.5,0.5,0.5c0.3,0,0.5-0.2,0.5-0.5V3.3
	c0.5,0,2,0,2,0c0.8,0,1.5,0.7,1.5,1.5v2.9H1.5V4.8C1.5,4,2.2,3.3,3,3.3z M15.2,18.5H3c-0.8,0-1.5-0.7-1.5-1.5V8.7h15.2V17
	C16.7,17.8,16,18.5,15.2,18.5z"/>
</svg>
