<svg xmlns="http://www.w3.org/2000/svg" width="21" height="16" viewBox="0 0 21 16">
    <g fill="#81014F" fill-rule="nonzero">
        <path d="M1.598 8.056a16.57 16.57 0 0 0 2.282 3.102c1.965 2.096 4.224 3.342 6.745 3.342s4.78-1.246 6.745-3.342A16.57 16.57 0 0 0 19.683 8l-.031-.056a16.57 16.57 0 0 0-2.282-3.102C15.405 2.746 13.146 1.5 10.625 1.5S5.845 2.746 3.88 4.842A16.57 16.57 0 0 0 1.567 8l.031.056zm-1.045-.28c.03-.061.089-.171.174-.322A17.56 17.56 0 0 1 3.15 4.158C5.288 1.878 7.787.5 10.625.5s5.337 1.379 7.474 3.658a17.56 17.56 0 0 1 2.424 3.296c.085.15.143.26.174.322a.5.5 0 0 1 0 .448c-.03.061-.089.171-.174.322a17.56 17.56 0 0 1-2.424 3.296c-2.137 2.28-4.636 3.658-7.474 3.658s-5.337-1.379-7.474-3.658A17.56 17.56 0 0 1 .727 8.546a8.164 8.164 0 0 1-.174-.322.5.5 0 0 1 0-.448z"/>
        <path d="M10.625 11.125a3.125 3.125 0 1 1 0-6.25 3.125 3.125 0 0 1 0 6.25z"/>
    </g>
</svg>
