<?xml version="1.0" encoding="UTF-8"?>
<svg width="70px" height="70px" viewBox="0 0 70 70" version="1.1" xmlns="http://www.w3.org/2000/svg" xmlns:xlink="http://www.w3.org/1999/xlink">
    <!-- Generator: Sketch 52.6 (67491) - http://www.bohemiancoding.com/sketch -->
    <title>Group 4</title>
    <desc>Created with Sketch.</desc>
    <g id="-Dashboard" stroke="none" stroke-width="1" fill="none" fill-rule="evenodd">
        <g id="Hesap-Ayarları" transform="translate(-1033.000000, -237.000000)" stroke="#DDBB74">
            <g id="Group-4" transform="translate(1034.000000, 238.000000)">
                <g id="multiple-users-silhouette" transform="translate(14.400000, 17.600000)" fill-rule="nonzero" stroke-width="2">
                    <path d="M23.4014321,5.75061176 C25.1944691,6.87111765 26.4517728,8.76724706 26.6806815,10.9682235 C27.4119309,11.3087647 28.223516,11.5046 29.0839802,11.5046 C32.2253037,11.5046 34.7713679,8.96694118 34.7713679,5.83647059 C34.7713679,2.70551765 32.2253037,0.167858824 29.0839802,0.167858824 C25.9726617,0.168823529 23.4488593,2.66114118 23.4014321,5.75061176 Z M19.6754963,17.3569882 C22.8168198,17.3569882 25.362884,14.8188471 25.362884,11.6883765 C25.362884,8.55790588 22.8163358,6.02024706 19.6754963,6.02024706 C16.5346568,6.02024706 13.9871407,8.55838824 13.9871407,11.6888588 C13.9871407,14.8193294 16.5346568,17.3569882 19.6754963,17.3569882 Z M22.0879901,17.7433529 L17.2620346,17.7433529 C13.2466963,17.7433529 9.98002963,20.9997176 9.98002963,25.0018 L9.98002963,30.8840941 L9.9950321,30.9762235 L10.4015506,31.1030824 C14.2334716,32.2964235 17.5625679,32.6943647 20.3026963,32.6943647 C25.6547062,32.6943647 28.7568296,31.1735059 28.9479901,31.0765529 L29.3278914,30.8850588 L29.3685432,30.8850588 L29.3685432,25.0018 C29.3699951,20.9997176 26.1033284,17.7433529 22.0879901,17.7433529 Z M31.497442,11.8914471 L26.7087506,11.8914471 C26.6569679,13.8010824 25.8390914,15.5206706 24.5454914,16.7574235 C28.1146272,17.8152235 30.7260247,21.1140353 30.7260247,25.0104824 L30.7260247,26.8231647 C35.4542222,26.6504824 38.1788642,25.3148471 38.3584099,25.2251294 L38.7383111,25.0331529 L38.778963,25.0331529 L38.778963,19.1489294 C38.778963,15.1473294 35.5122963,11.8914471 31.497442,11.8914471 Z M9.69595062,11.5055647 C10.8085531,11.5055647 11.8437235,11.1819059 12.720642,10.6305765 C12.9993975,8.81837647 13.9740741,7.23481176 15.3664,6.15627059 C15.3722074,6.05015294 15.3823704,5.945 15.3823704,5.83791765 C15.3823704,2.70696471 12.8358222,0.169305882 9.69595062,0.169305882 C6.55414321,0.169305882 4.00856296,2.70696471 4.00856296,5.83791765 C4.00856296,8.96742353 6.55414321,11.5055647 9.69595062,11.5055647 Z M14.8035654,16.7574235 C13.5162568,15.5269412 12.701284,13.8165176 12.641758,11.9184588 C12.4641481,11.9054353 12.2884741,11.8914471 12.1074765,11.8914471 L7.28200494,11.8914471 C3.26666667,11.8914471 0,15.1473294 0,19.1489294 L0,25.0321882 L0.0150024691,25.1228706 L0.421520988,25.2506941 C3.49557531,26.2072 6.23909136,26.6480706 8.6220642,26.7869882 L8.6220642,25.0104824 C8.6230321,21.1140353 11.2334617,17.8161882 14.8035654,16.7574235 Z" id="Shape"></path>
                </g>
                <circle id="Oval-Copy-3" stroke-width="0.8" cx="34" cy="34" r="34"></circle>
            </g>
        </g>
    </g>
</svg>