<?xml version="1.0" encoding="UTF-8"?>
<svg width="70px" height="70px" viewBox="0 0 70 70" version="1.1" xmlns="http://www.w3.org/2000/svg" xmlns:xlink="http://www.w3.org/1999/xlink">
    <!-- Generator: Sketch 52.6 (67491) - http://www.bohemiancoding.com/sketch -->
    <title>Group</title>
    <desc>Created with Sketch.</desc>
    <g id="-Dashboard" stroke="none" stroke-width="1" fill="none" fill-rule="evenodd">
        <g id="Hesap-Ayarları" transform="translate(-314.000000, -237.000000)">
            <g id="Group" transform="translate(315.000000, 238.000000)">
                <g id="profile" transform="translate(20.800000, 21.600000)" fill="#DDBB74" fill-rule="nonzero">
                    <path d="M13.5416454,14.3492758 C17.5573106,14.3492758 20.8144142,11.1355717 20.8144142,7.1735197 C20.8144142,3.21146766 17.5572624,0.0197472119 13.5416454,0.0197472119 C9.52602837,0.0197472119 6.2688766,3.2334513 6.2688766,7.1735197 C6.2688766,11.1135881 9.52598014,14.3492758 13.5416454,14.3492758 Z M13.5416454,1.89073606 C16.4864312,1.89073606 18.8958496,4.26796729 18.8958496,7.1735197 C18.8958496,10.0790721 16.4864312,12.4562558 13.5416454,12.4562558 C10.5968596,12.4562558 8.18744113,10.0790245 8.18744113,7.17347212 C8.18744113,4.2679197 10.5968113,1.89073606 13.5416454,1.89073606 Z" id="Shape"></path>
                    <path d="M0.95928227,25.5531301 L26.2132284,25.5531301 C26.748644,25.5531301 27.1725106,25.1349175 27.1725106,24.6066439 C27.1725106,19.6540431 23.0899546,15.6039138 18.0480681,15.6039138 L9.12444255,15.6039138 C4.10488511,15.6039138 0,19.6320119 0,24.6066439 C0,25.1349175 0.423866667,25.5531301 0.95928227,25.5531301 Z M9.12444255,17.4968862 L18.0480681,17.4968862 C21.7067574,17.4968862 24.7184823,20.1823167 25.1870071,23.66011 L1.98550355,23.66011 C2.45398014,20.204348 5.46575319,17.4968862 9.12444255,17.4968862 Z" id="Shape"></path>
                </g>
                <circle id="Oval-Copy" stroke="#DDBB74" stroke-width="0.8" cx="34" cy="34" r="34"></circle>
            </g>
        </g>
    </g>
</svg>