<?xml version="1.0" encoding="UTF-8"?>
<svg width="70px" height="70px" viewBox="0 0 70 70" version="1.1" xmlns="http://www.w3.org/2000/svg" xmlns:xlink="http://www.w3.org/1999/xlink">
    <!-- Generator: Sketch 52.6 (67491) - http://www.bohemiancoding.com/sketch -->
    <title>Group 2</title>
    <desc>Created with Sketch.</desc>
    <g id="-Dashboard" stroke="none" stroke-width="1" fill="none" fill-rule="evenodd">
        <g id="Hesap-Ayarları" transform="translate(-674.000000, -237.000000)">
            <g id="Group-2" transform="translate(675.000000, 238.000000)">
                <g id="building" transform="translate(16.800000, 16.000000)" fill="#DDBB74">
                    <polygon id="Path" points="20.8857143 1.23508772 17.8142857 0.205646891 17.8142857 0 16.5857143 0 16.5857143 4.32280702 17.8142857 4.32280702 17.8142857 2.26452855"></polygon>
                    <polygon id="Path" points="6.14285714 21.6140351 7.37142857 21.6140351 7.37142857 22.8491228 6.14285714 22.8491228"></polygon>
                    <path d="M0,17.9087719 L0,35.2 L9.21428571,35.2 L9.21428571,17.9087719 L0,17.9087719 Z M4.3,27.7894737 C4.3,28.1305099 4.02495119,28.4070175 3.68571429,28.4070175 L1.22857143,28.4070175 C0.889334523,28.4070175 0.614285714,28.1305099 0.614285714,27.7894737 L0.614285714,25.3192982 C0.614285714,24.978262 0.889334523,24.7017544 1.22857143,24.7017544 L3.68571429,24.7017544 C4.02495119,24.7017544 4.3,24.978262 4.3,25.3192982 L4.3,27.7894737 Z M4.3,23.4666667 C4.3,23.8077029 4.02495119,24.0842105 3.68571429,24.0842105 L1.22857143,24.0842105 C0.889334523,24.0842105 0.614285714,23.8077029 0.614285714,23.4666667 L0.614285714,20.9964912 C0.614285714,20.655455 0.889334523,20.3789474 1.22857143,20.3789474 L3.68571429,20.3789474 C4.02495119,20.3789474 4.3,20.655455 4.3,20.9964912 L4.3,23.4666667 Z M8.6,27.7894737 C8.6,28.1305099 8.32495119,28.4070175 7.98571429,28.4070175 L5.52857143,28.4070175 C5.18933452,28.4070175 4.91428571,28.1305099 4.91428571,27.7894737 L4.91428571,25.3192982 C4.91428571,24.978262 5.18933452,24.7017544 5.52857143,24.7017544 L7.98571429,24.7017544 C8.32495119,24.7017544 8.6,24.978262 8.6,25.3192982 L8.6,27.7894737 Z M8.6,23.4666667 C8.6,23.8077029 8.32495119,24.0842105 7.98571429,24.0842105 L5.52857143,24.0842105 C5.18933452,24.0842105 4.91428571,23.8077029 4.91428571,23.4666667 L4.91428571,20.9964912 C4.91428571,20.655455 5.18933452,20.3789474 5.52857143,20.3789474 L7.98571429,20.3789474 C8.32495119,20.3789474 8.6,20.655455 8.6,20.9964912 L8.6,23.4666667 Z" id="Shape" fill-rule="nonzero"></path>
                    <polygon id="Path" points="6.14285714 25.9368421 7.37142857 25.9368421 7.37142857 27.1719298 6.14285714 27.1719298"></polygon>
                    <polygon id="Path" points="20.8857143 11.7333333 22.1142857 11.7333333 22.1142857 12.9684211 20.8857143 12.9684211"></polygon>
                    <polygon id="Path" points="20.8857143 21.6140351 22.1142857 21.6140351 22.1142857 22.8491228 20.8857143 22.8491228"></polygon>
                    <polygon id="Path" points="14.1285714 27.7894737 16.5857143 27.7894737 16.5857143 35.2 14.1285714 35.2"></polygon>
                    <polygon id="Path" points="17.8142857 27.7894737 20.2714286 27.7894737 20.2714286 35.2 17.8142857 35.2"></polygon>
                    <polygon id="Path" points="20.8857143 16.6736842 22.1142857 16.6736842 22.1142857 17.9087719 20.8857143 17.9087719"></polygon>
                    <polygon id="Path" points="31.3285714 25.9368421 32.5571429 25.9368421 32.5571429 27.1719298 31.3285714 27.1719298"></polygon>
                    <polygon id="Path" points="27.0285714 21.6140351 28.2571429 21.6140351 28.2571429 22.8491228 27.0285714 22.8491228"></polygon>
                    <polygon id="Path" points="31.3285714 21.6140351 32.5571429 21.6140351 32.5571429 22.8491228 31.3285714 22.8491228"></polygon>
                    <polygon id="Path" points="1.84285714 25.9368421 3.07142857 25.9368421 3.07142857 27.1719298 1.84285714 27.1719298"></polygon>
                    <polygon id="Path" points="1.84285714 21.6140351 3.07142857 21.6140351 3.07142857 22.8491228 1.84285714 22.8491228"></polygon>
                    <polygon id="Path" points="27.0285714 25.9368421 28.2571429 25.9368421 28.2571429 27.1719298 27.0285714 27.1719298"></polygon>
                    <path d="M34.4,35.2 L34.4,17.9087719 L25.1857143,17.9087719 L25.1857143,35.2 L34.4,35.2 Z M30.1,20.9964912 C30.1,20.655455 30.3750488,20.3789474 30.7142857,20.3789474 L33.1714286,20.3789474 C33.5106655,20.3789474 33.7857143,20.655455 33.7857143,20.9964912 L33.7857143,23.4666667 C33.7857143,23.8077029 33.5106655,24.0842105 33.1714286,24.0842105 L30.7142857,24.0842105 C30.3750488,24.0842105 30.1,23.8077029 30.1,23.4666667 L30.1,20.9964912 Z M30.1,25.3192982 C30.1,24.978262 30.3750488,24.7017544 30.7142857,24.7017544 L33.1714286,24.7017544 C33.5106655,24.7017544 33.7857143,24.978262 33.7857143,25.3192982 L33.7857143,27.7894737 C33.7857143,28.1305099 33.5106655,28.4070175 33.1714286,28.4070175 L30.7142857,28.4070175 C30.3750488,28.4070175 30.1,28.1305099 30.1,27.7894737 L30.1,25.3192982 Z M25.8,20.9964912 C25.8,20.655455 26.0750488,20.3789474 26.4142857,20.3789474 L28.8714286,20.3789474 C29.2106655,20.3789474 29.4857143,20.655455 29.4857143,20.9964912 L29.4857143,23.4666667 C29.4857143,23.8077029 29.2106655,24.0842105 28.8714286,24.0842105 L26.4142857,24.0842105 C26.0750488,24.0842105 25.8,23.8077029 25.8,23.4666667 L25.8,20.9964912 Z M25.8,25.3192982 C25.8,24.978262 26.0750488,24.7017544 26.4142857,24.7017544 L28.8714286,24.7017544 C29.2106655,24.7017544 29.4857143,24.978262 29.4857143,25.3192982 L29.4857143,27.7894737 C29.4857143,28.1305099 29.2106655,28.4070175 28.8714286,28.4070175 L26.4142857,28.4070175 C26.0750488,28.4070175 25.8,28.1305099 25.8,27.7894737 L25.8,25.3192982 Z" id="Shape" fill-rule="nonzero"></path>
                    <polygon id="Path" points="12.2857143 11.7333333 13.5142857 11.7333333 13.5142857 12.9684211 12.2857143 12.9684211"></polygon>
                    <polygon id="Path" points="16.5857143 21.6140351 17.8142857 21.6140351 17.8142857 22.8491228 16.5857143 22.8491228"></polygon>
                    <polygon id="Path" points="12.2857143 16.6736842 13.5142857 16.6736842 13.5142857 17.9087719 12.2857143 17.9087719"></polygon>
                    <polygon id="Path" points="12.2857143 21.6140351 13.5142857 21.6140351 13.5142857 22.8491228 12.2857143 22.8491228"></polygon>
                    <polygon id="Path" points="9.21428571 5.55789474 25.1857143 5.55789474 25.1857143 6.79298246 9.21428571 6.79298246"></polygon>
                    <path d="M10.4428571,35.2 L12.9,35.2 L12.9,27.1719298 C12.9,26.8308936 13.1750488,26.554386 13.5142857,26.554386 L20.8857143,26.554386 C21.2249512,26.554386 21.5,26.8308936 21.5,27.1719298 L21.5,35.2 L23.9571429,35.2 L23.9571429,8.02807018 L10.4428571,8.02807018 L10.4428571,35.2 Z M19.6571429,11.1157895 C19.6571429,10.7747533 19.9321917,10.4982456 20.2714286,10.4982456 L22.7285714,10.4982456 C23.0678083,10.4982456 23.3428571,10.7747533 23.3428571,11.1157895 L23.3428571,13.5859649 C23.3428571,13.9270011 23.0678083,14.2035088 22.7285714,14.2035088 L20.2714286,14.2035088 C19.9321917,14.2035088 19.6571429,13.9270011 19.6571429,13.5859649 L19.6571429,11.1157895 Z M19.6571429,16.0561404 C19.6571429,15.7151041 19.9321917,15.4385965 20.2714286,15.4385965 L22.7285714,15.4385965 C23.0678083,15.4385965 23.3428571,15.7151041 23.3428571,16.0561404 L23.3428571,18.5263158 C23.3428571,18.867352 23.0678083,19.1438596 22.7285714,19.1438596 L20.2714286,19.1438596 C19.9321917,19.1438596 19.6571429,18.867352 19.6571429,18.5263158 L19.6571429,16.0561404 Z M19.6571429,20.9964912 C19.6571429,20.655455 19.9321917,20.3789474 20.2714286,20.3789474 L22.7285714,20.3789474 C23.0678083,20.3789474 23.3428571,20.655455 23.3428571,20.9964912 L23.3428571,23.4666667 C23.3428571,23.8077029 23.0678083,24.0842105 22.7285714,24.0842105 L20.2714286,24.0842105 C19.9321917,24.0842105 19.6571429,23.8077029 19.6571429,23.4666667 L19.6571429,20.9964912 Z M15.3571429,11.1157895 C15.3571429,10.7747533 15.6321917,10.4982456 15.9714286,10.4982456 L18.4285714,10.4982456 C18.7678083,10.4982456 19.0428571,10.7747533 19.0428571,11.1157895 L19.0428571,13.5859649 C19.0428571,13.9270011 18.7678083,14.2035088 18.4285714,14.2035088 L15.9714286,14.2035088 C15.6321917,14.2035088 15.3571429,13.9270011 15.3571429,13.5859649 L15.3571429,11.1157895 Z M15.3571429,16.0561404 C15.3571429,15.7151041 15.6321917,15.4385965 15.9714286,15.4385965 L18.4285714,15.4385965 C18.7678083,15.4385965 19.0428571,15.7151041 19.0428571,16.0561404 L19.0428571,18.5263158 C19.0428571,18.867352 18.7678083,19.1438596 18.4285714,19.1438596 L15.9714286,19.1438596 C15.6321917,19.1438596 15.3571429,18.867352 15.3571429,18.5263158 L15.3571429,16.0561404 Z M15.3571429,20.9964912 C15.3571429,20.655455 15.6321917,20.3789474 15.9714286,20.3789474 L18.4285714,20.3789474 C18.7678083,20.3789474 19.0428571,20.655455 19.0428571,20.9964912 L19.0428571,23.4666667 C19.0428571,23.8077029 18.7678083,24.0842105 18.4285714,24.0842105 L15.9714286,24.0842105 C15.6321917,24.0842105 15.3571429,23.8077029 15.3571429,23.4666667 L15.3571429,20.9964912 Z M11.0571429,11.1157895 C11.0571429,10.7747533 11.3321917,10.4982456 11.6714286,10.4982456 L14.1285714,10.4982456 C14.4678083,10.4982456 14.7428571,10.7747533 14.7428571,11.1157895 L14.7428571,13.5859649 C14.7428571,13.9270011 14.4678083,14.2035088 14.1285714,14.2035088 L11.6714286,14.2035088 C11.3321917,14.2035088 11.0571429,13.9270011 11.0571429,13.5859649 L11.0571429,11.1157895 Z M11.0571429,16.0561404 C11.0571429,15.7151041 11.3321917,15.4385965 11.6714286,15.4385965 L14.1285714,15.4385965 C14.4678083,15.4385965 14.7428571,15.7151041 14.7428571,16.0561404 L14.7428571,18.5263158 C14.7428571,18.867352 14.4678083,19.1438596 14.1285714,19.1438596 L11.6714286,19.1438596 C11.3321917,19.1438596 11.0571429,18.867352 11.0571429,18.5263158 L11.0571429,16.0561404 Z M11.0571429,20.9964912 C11.0571429,20.655455 11.3321917,20.3789474 11.6714286,20.3789474 L14.1285714,20.3789474 C14.4678083,20.3789474 14.7428571,20.655455 14.7428571,20.9964912 L14.7428571,23.4666667 C14.7428571,23.8077029 14.4678083,24.0842105 14.1285714,24.0842105 L11.6714286,24.0842105 C11.3321917,24.0842105 11.0571429,23.8077029 11.0571429,23.4666667 L11.0571429,20.9964912 Z" id="Shape" fill-rule="nonzero"></path>
                    <polygon id="Path" points="16.5857143 11.7333333 17.8142857 11.7333333 17.8142857 12.9684211 16.5857143 12.9684211"></polygon>
                    <polygon id="Path" points="16.5857143 16.6736842 17.8142857 16.6736842 17.8142857 17.9087719 16.5857143 17.9087719"></polygon>
                </g>
                <circle id="Oval-Copy-2" stroke="#DDBB74" stroke-width="0.8" cx="34" cy="34" r="34"></circle>
            </g>
        </g>
    </g>
</svg>