<?xml version="1.0" encoding="UTF-8"?>
<svg width="23px" height="23px" viewBox="0 0 23 23" version="1.1" xmlns="http://www.w3.org/2000/svg" xmlns:xlink="http://www.w3.org/1999/xlink">
    <!-- Generator: Sketch 52.6 (67491) - http://www.bohemiancoding.com/sketch -->
    <title>calendar</title>
    <desc>Created with Sketch.</desc>
    <g id="-Dashboard" stroke="none" stroke-width="1" fill="none" fill-rule="evenodd">
        <g id="Kitle-ve-Bütçe-Belirleme" transform="translate(-346.000000, -382.000000)" fill="#2B3445">
            <g id="calendar" transform="translate(346.000000, 382.000000)">
                <path d="M17.0116724,1.78448276 C16.8272759,0.880741379 16.0266379,0.198275862 15.0689655,0.198275862 C14.8496724,0.198275862 14.6724138,0.375534483 14.6724138,0.594827586 C14.6724138,0.81412069 14.8496724,0.99137931 15.0689655,0.99137931 C15.7248621,0.99137931 16.2586207,1.52513793 16.2586207,2.18103448 C16.2586207,2.83693103 15.7248621,3.37068966 15.0689655,3.37068966 C14.8496724,3.37068966 14.6724138,3.54794828 14.6724138,3.76724138 C14.6724138,3.98653448 14.8496724,4.1637931 15.0689655,4.1637931 C16.0262414,4.1637931 16.8272759,3.48132759 17.0116724,2.57758621 L22.2068966,2.57758621 L22.2068966,6.14655172 L0.793103448,6.14655172 L0.793103448,2.57758621 L6.34482759,2.57758621 L7.53448276,2.57758621 C7.75377586,2.57758621 7.93103448,2.40032759 7.93103448,2.18103448 C7.93103448,1.96174138 7.75377586,1.78448276 7.53448276,1.78448276 L6.81434483,1.78448276 C6.97851724,1.32368966 7.41472414,0.99137931 7.93103448,0.99137931 C8.58693103,0.99137931 9.12068966,1.52513793 9.12068966,2.18103448 C9.12068966,2.83693103 8.58693103,3.37068966 7.93103448,3.37068966 C7.71174138,3.37068966 7.53448276,3.54794828 7.53448276,3.76724138 C7.53448276,3.98653448 7.71174138,4.1637931 7.93103448,4.1637931 C9.02432759,4.1637931 9.9137931,3.27432759 9.9137931,2.18103448 C9.9137931,1.08774138 9.02432759,0.198275862 7.93103448,0.198275862 C6.97375862,0.198275862 6.17272414,0.880741379 5.98832759,1.78448276 L0,1.78448276 L0,6.93965517 L0,22.8017241 L23,22.8017241 L23,6.93965517 L23,1.78448276 L17.0116724,1.78448276 Z M22.2068966,22.0086207 L0.793103448,22.0086207 L0.793103448,6.93965517 L22.2068966,6.93965517 L22.2068966,22.0086207 Z" id="Shape" fill-rule="nonzero"></path>
                <path d="M10.3103448,0.99137931 C10.9662414,0.99137931 11.5,1.52513793 11.5,2.18103448 C11.5,2.83693103 10.9662414,3.37068966 10.3103448,3.37068966 C10.0910517,3.37068966 9.9137931,3.54794828 9.9137931,3.76724138 C9.9137931,3.98653448 10.0910517,4.1637931 10.3103448,4.1637931 C11.4036379,4.1637931 12.2931034,3.27432759 12.2931034,2.18103448 C12.2931034,1.08774138 11.4036379,0.198275862 10.3103448,0.198275862 C10.0910517,0.198275862 9.9137931,0.375534483 9.9137931,0.594827586 C9.9137931,0.81412069 10.0910517,0.99137931 10.3103448,0.99137931 Z" id="Path"></path>
                <path d="M12.6896552,0.99137931 C13.3455517,0.99137931 13.8793103,1.52513793 13.8793103,2.18103448 C13.8793103,2.83693103 13.3455517,3.37068966 12.6896552,3.37068966 C12.4703621,3.37068966 12.2931034,3.54794828 12.2931034,3.76724138 C12.2931034,3.98653448 12.4703621,4.1637931 12.6896552,4.1637931 C13.7829483,4.1637931 14.6724138,3.27432759 14.6724138,2.18103448 C14.6724138,1.08774138 13.7829483,0.198275862 12.6896552,0.198275862 C12.4703621,0.198275862 12.2931034,0.375534483 12.2931034,0.594827586 C12.2931034,0.81412069 12.4703621,0.99137931 12.6896552,0.99137931 Z" id="Path"></path>
                <circle id="Oval" cx="8.72413793" cy="9.71551724" r="1"></circle>
                <circle id="Oval" cx="11.5" cy="9.71551724" r="1"></circle>
                <circle id="Oval" cx="14.2758621" cy="9.71551724" r="1"></circle>
                <circle id="Oval" cx="17.0517241" cy="9.71551724" r="1"></circle>
                <circle id="Oval" cx="19.8275862" cy="9.71551724" r="1"></circle>
                <circle id="Oval" cx="3.17241379" cy="12.887931" r="1"></circle>
                <circle id="Oval" cx="5.94827586" cy="12.887931" r="1"></circle>
                <circle id="Oval" cx="8.72413793" cy="12.887931" r="1"></circle>
                <circle id="Oval" cx="11.5" cy="12.887931" r="1"></circle>
                <circle id="Oval" cx="14.2758621" cy="12.887931" r="1"></circle>
                <circle id="Oval" cx="17.0517241" cy="12.887931" r="1"></circle>
                <circle id="Oval" cx="19.8275862" cy="12.887931" r="1"></circle>
                <circle id="Oval" cx="3.17241379" cy="15.6637931" r="1"></circle>
                <circle id="Oval" cx="5.94827586" cy="15.6637931" r="1"></circle>
                <circle id="Oval" cx="8.72413793" cy="15.6637931" r="1"></circle>
                <circle id="Oval" cx="11.5" cy="15.6637931" r="1"></circle>
                <circle id="Oval" cx="14.2758621" cy="15.6637931" r="1"></circle>
                <circle id="Oval" cx="17.0517241" cy="15.6637931" r="1"></circle>
                <circle id="Oval" cx="19.8275862" cy="15.6637931" r="1"></circle>
                <circle id="Oval" cx="3.17241379" cy="18.8362069" r="1"></circle>
                <circle id="Oval" cx="5.94827586" cy="18.8362069" r="1"></circle>
                <circle id="Oval" cx="8.72413793" cy="18.8362069" r="1"></circle>
                <circle id="Oval" cx="11.5" cy="18.8362069" r="1"></circle>
                <circle id="Oval" cx="14.2758621" cy="18.8362069" r="1"></circle>
            </g>
        </g>
    </g>
</svg>