<?xml version="1.0" encoding="UTF-8"?>
<svg width="26px" height="22px" viewBox="0 0 26 22" version="1.1" xmlns="http://www.w3.org/2000/svg" xmlns:xlink="http://www.w3.org/1999/xlink">
    <!-- Generator: Sketch 52.6 (67491) - http://www.bohemiancoding.com/sketch -->
    <title>flyers</title>
    <desc>Created with Sketch.</desc>
    <g id="-Dashboard" stroke="none" stroke-width="1" fill="none" fill-rule="evenodd">
        <g id="Kampanya-Onay" transform="translate(-18.000000, -247.000000)" fill="#FFFFFF">
            <g id="flyers" transform="translate(18.000000, 247.000000)">
                <path d="M25.3449219,7.54168919 L24.036543,6.43841892 C23.8742461,6.30146396 23.6288203,6.31895495 23.4885117,6.47741441 C23.3482031,6.63582432 23.3660273,6.87524775 23.5284766,7.01215315 L24.8367539,8.11542342 C25.3031289,8.5086982 25.3546211,9.19887387 24.9516211,9.65393694 L16.4535312,19.2485135 C16.3132227,19.4069234 16.3310469,19.6463468 16.4934453,19.7833018 C16.5669258,19.8452883 16.6573672,19.8756126 16.7473516,19.8756126 C16.8563789,19.8756126 16.9646953,19.8311171 17.0415273,19.7444054 L25.5395664,10.1497297 C26.2228281,9.37834234 26.1354844,8.20832883 25.3449219,7.54168919 Z" id="Path"></path>
                <path d="M23.0415352,5.59924775 L16.9892227,0.495594595 C16.6062305,0.172630631 16.117207,0.0147162162 15.6124414,0.0503918919 C15.1075742,0.0862162162 14.647293,0.311815315 14.3163008,0.685468468 L13.7396289,1.33654955 C13.5993203,1.49500901 13.6171445,1.73443243 13.779543,1.87133784 C13.9419922,2.00834234 14.1873164,1.9908018 14.327625,1.83239189 L14.9042969,1.18131081 C15.0995508,0.960914414 15.3710781,0.827824324 15.6689102,0.806666667 C15.9667422,0.785310811 16.2551289,0.878761261 16.4810547,1.06927928 L22.5333672,6.17293243 C22.6068477,6.23491892 22.6972891,6.26524324 22.7872734,6.26524324 C22.8963008,6.26524324 23.0046172,6.22074775 23.0814492,6.13403604 C23.221707,5.97557658 23.2038828,5.73615315 23.0415352,5.59924775 Z" id="Path"></path>
                <path d="M19.3526836,4.25888288 L8.88219922,0.832135135 C7.89140625,0.507882883 6.81519922,1.03058108 6.4829375,1.99719369 L6.3448125,2.39899099 C6.2765625,2.59748649 6.38619922,2.81243243 6.58967969,2.87902703 C6.79316016,2.94562162 7.01334766,2.83869369 7.08164844,2.6400991 L7.21977344,2.2383018 C7.41578906,1.66803604 8.05060547,1.35968919 8.63509766,1.551 L19.1056328,4.9776982 C19.6900742,5.16900901 20.0060352,5.78847748 19.8100195,6.35869369 L14.9384219,20.5308559 C14.8701719,20.7293514 14.9798086,20.9442477 15.1832891,21.0108919 C15.2242695,21.0242703 15.2659102,21.0306622 15.3068906,21.0306622 C15.4692891,21.0306622 15.6207188,20.9305225 15.6752578,20.7720135 L20.5468555,6.5999009 C20.8790664,5.63333784 20.3434258,4.58308559 19.3526836,4.25888288 Z" id="Path"></path>
                <path d="M12.9388086,3.30837387 L1.89505469,3.30837387 C0.850128906,3.30837387 0,4.13783333 0,5.15741441 L0,20.105473 C0,21.1250541 0.850128906,21.9545631 1.89505469,21.9545631 L12.9388594,21.9545631 C13.9837852,21.9545631 14.8339141,21.1250541 14.8339141,20.105473 L14.8339141,5.15741441 C14.8338633,4.13783333 13.9837852,3.30837387 12.9388086,3.30837387 Z M14.056707,20.105473 C14.056707,20.706955 13.5551914,21.1962568 12.9388086,21.1962568 L1.89505469,21.1962568 C1.27862109,21.1962568 0.77715625,20.7069054 0.77715625,20.105473 L0.77715625,5.15741441 C0.77715625,4.55593243 1.27867188,4.06663063 1.89505469,4.06663063 L12.9388594,4.06663063 C13.555293,4.06663063 14.0567578,4.55598198 14.0567578,5.15741441 L14.0567578,20.105473 L14.056707,20.105473 Z" id="Shape" fill-rule="nonzero"></path>
                <path d="M13.1410703,13.7727928 L1.69284375,13.7727928 C1.47824219,13.7727928 1.30426563,13.9425495 1.30426563,14.1519459 C1.30426563,14.3613423 1.47824219,14.5310991 1.69284375,14.5310991 L13.1411211,14.5310991 C13.3557227,14.5310991 13.5296992,14.3613423 13.5296992,14.1519459 C13.5296484,13.9425495 13.3556719,13.7727928 13.1410703,13.7727928 Z" id="Path"></path>
                <path d="M11.3296016,15.940982 L6.517875,15.940982 C6.30327344,15.940982 6.12929688,16.1107387 6.12929688,16.3201351 C6.12929688,16.5295315 6.30327344,16.6992883 6.517875,16.6992883 L11.3296016,16.6992883 C11.5442031,16.6992883 11.7181797,16.5295315 11.7181797,16.3201351 C11.7181797,16.1107387 11.5442031,15.940982 11.3296016,15.940982 Z" id="Path"></path>
                <path d="M5.22259766,15.940982 L3.50421094,15.940982 C3.28960937,15.940982 3.11563281,16.1107387 3.11563281,16.3201351 C3.11563281,16.5295315 3.28960937,16.6992883 3.50421094,16.6992883 L5.22259766,16.6992883 C5.43719922,16.6992883 5.61117578,16.5295315 5.61117578,16.3201351 C5.61117578,16.1107387 5.43719922,15.940982 5.22259766,15.940982 Z" id="Path"></path>
                <path d="M11.3296016,17.3903559 L3.50421094,17.3903559 C3.28960937,17.3903559 3.11563281,17.5601126 3.11563281,17.769509 C3.11563281,17.9789054 3.28960937,18.1486622 3.50421094,18.1486622 L11.3296016,18.1486622 C11.5442031,18.1486622 11.7181797,17.9789054 11.7181797,17.769509 C11.7181797,17.5600631 11.5442031,17.3903559 11.3296016,17.3903559 Z" id="Path"></path>
                <path d="M11.3296016,18.8396802 L3.50421094,18.8396802 C3.28960937,18.8396802 3.11563281,19.0094369 3.11563281,19.2188333 C3.11563281,19.4282297 3.28960937,19.5979865 3.50421094,19.5979865 L11.3296016,19.5979865 C11.5442031,19.5979865 11.7181797,19.4282297 11.7181797,19.2188333 C11.7181797,19.0094369 11.5442031,18.8396802 11.3296016,18.8396802 Z" id="Path"></path>
                <path d="M11.6876094,7.70753153 C11.6419062,7.57027928 11.5203359,7.47023874 11.3739844,7.44952703 L8.88047266,7.09599099 L7.76536719,4.89128378 C7.69985937,4.76186036 7.56483203,4.67990541 7.41690625,4.67990541 C7.26903125,4.67990541 7.13395312,4.76186036 7.06844531,4.89128378 L5.95328906,7.09599099 L3.45977734,7.44952703 C3.31342578,7.47023874 3.19180469,7.57027928 3.14615234,7.70753153 C3.10044922,7.84478378 3.13858594,7.99541441 3.24446484,8.09614865 L5.04882422,9.81224775 L4.62287109,12.235518 C4.59788672,12.3777252 4.65780859,12.5214685 4.77744922,12.6062973 C4.84514062,12.6542613 4.92532422,12.6786892 5.00586328,12.6786892 C5.06766406,12.6786892 5.12976953,12.6642703 5.18664453,12.6351847 L7.41690625,11.491036 L9.64716797,12.6351847 C9.77808203,12.7023243 9.93672266,12.6911261 10.0563633,12.6062973 C10.1760547,12.5214685 10.2359258,12.3777252 10.2109414,12.235518 L9.78498828,9.81224775 L11.5892969,8.09614865 C11.6951758,7.99541441 11.7333125,7.84478378 11.6876094,7.70753153 Z M9.09629297,9.40841892 C9.00468359,9.49552703 8.96289063,9.62103604 8.98452344,9.74401802 L9.31191016,11.606536 L7.5976875,10.7271306 C7.48444531,10.6691081 7.34921484,10.6691081 7.23607422,10.7271306 L5.52185156,11.606536 L5.84923828,9.74401802 C5.87082031,9.62103604 5.82907813,9.49552703 5.73746875,9.40841892 L4.35068359,8.08940991 L6.26721875,7.81763063 C6.39376563,7.79969369 6.50314844,7.72214865 6.55976953,7.61021622 L7.41685547,5.91562162 L8.27394141,7.61021622 C8.33051172,7.7220991 8.43994531,7.79969369 8.56649219,7.81763063 L10.4830781,8.08940991 L9.09629297,9.40841892 Z" id="Shape" fill-rule="nonzero"></path>
            </g>
        </g>
    </g>
</svg>