<svg xmlns="http://www.w3.org/2000/svg" width="26" height="26" viewBox="0 0 26 26">
    <g fill="#9B9B9B" fill-rule="evenodd">
        <path fill-rule="nonzero" d="M22.192 3.808A12.915 12.915 0 0 0 13 0a12.915 12.915 0 0 0-9.192 3.808A12.915 12.915 0 0 0 0 13c0 3.472 1.352 6.737 3.808 9.192A12.915 12.915 0 0 0 13 26c3.472 0 6.737-1.352 9.192-3.808A12.915 12.915 0 0 0 26 13c0-3.472-1.352-6.737-3.808-9.192zM13 24.477C6.672 24.477 1.523 19.328 1.523 13S6.672 1.523 13 1.523 24.477 6.672 24.477 13 19.328 24.477 13 24.477z"/>
        <text font-family="Rubik-Regular, Rubik" font-size="15">
            <tspan x="8.215" y="19">X</tspan>
        </text>
    </g>
</svg>
