<svg xmlns="http://www.w3.org/2000/svg" width="200" height="32" viewBox="0 0 200 32">
    <g fill="none" fill-rule="evenodd">
        <path fill="#373737" d="M193.67 19.096c1.184 0 2.115-.063 2.795-.189.201-.025.302-.3.302-.828 0-.728-.321-1.35-.963-1.865-.642-.514-1.403-.772-2.284-.772-.554 0-1.127.17-1.718.509a4.733 4.733 0 0 0-1.454 1.262c-.378.502-.566 1.004-.566 1.506 0 .251.15.377.453.377h3.436zm.038 11.412c-1.359 0-2.56-.339-3.605-1.017-1.045-.678-1.857-1.638-2.436-2.881-.579-1.243-.868-2.68-.868-4.313 0-1.406.333-2.724 1-3.955.667-1.23 1.555-2.203 2.662-2.918a6.548 6.548 0 0 1 3.625-1.074c1.51 0 2.75.446 3.72 1.337.968.892 1.453 2.028 1.453 3.409 0 .778-.378 1.167-1.133 1.167h-7.967c-.352 0-.597.095-.736.283-.138.188-.208.559-.208 1.111 0 1.18.258 2.272.774 3.277.516 1.004 1.221 1.801 2.115 2.391.893.59 1.869.885 2.926.885 1.485 0 2.718-.564 3.7-1.694.151-.201.29-.302.415-.302.202 0 .302.126.302.377 0 .477-.226 1.004-.679 1.582-.554.728-1.284 1.3-2.19 1.714a6.82 6.82 0 0 1-2.87.621zm-17.481-1.996c.654 0 1.296-.17 1.926-.509a5.857 5.857 0 0 0 1.66-1.337l.039-6.78c0-.677-.195-1.343-.586-1.995-.39-.653-.944-1.187-1.66-1.601-.718-.414-1.518-.622-2.398-.622-.68 0-1.372.189-2.077.565-.705.377-1.31 1.03-1.812 1.959-.504.929-.756 2.172-.756 3.729 0 1.732.327 3.088.982 4.067.654.98 1.41 1.645 2.265 1.997.856.351 1.662.527 2.417.527zm3.813 2.147c-.05 0-.132-.05-.245-.15-.113-.101-.17-.177-.17-.227l.076-.98c.075-.451.113-.878.113-1.28v-.226c-.453.703-1.108 1.325-1.964 1.865-.855.54-1.85.81-2.982.81-1.385 0-2.606-.365-3.663-1.093a7.302 7.302 0 0 1-2.454-2.881 8.403 8.403 0 0 1-.868-3.71c0-1.482.346-2.869 1.038-4.162a7.994 7.994 0 0 1 2.964-3.107c1.284-.779 2.781-1.168 4.493-1.168.478 0 .97.044 1.472.132.504.088.92.182 1.246.283.227.075.39.112.491.112.076 0 .139-.075.19-.226.05-.15.075-.376.075-.677V8.625c0-.954-.151-1.62-.453-1.996-.303-.377-.78-.628-1.435-.753-.227-.05-.34-.214-.34-.49 0-.226.1-.377.302-.452 1.334-.326 2.328-.634 2.983-.923.654-.288 1.02-.446 1.095-.47.201-.076.365-.114.49-.114.152 0 .24.076.265.226 0 .151-.044.628-.132 1.432-.088.803-.132 2.033-.132 3.69V25.8c0 .879.063 1.507.188 1.883.126.377.328.565.604.565.428 0 .97-.038 1.624-.113h.189c.327 0 .49.113.49.34a.722.722 0 0 1-.17.47c-.113.138-.232.207-.358.207-1.36.176-2.832.603-4.417 1.28-.277.151-.479.227-.605.227zM156.215 3.766c-.528 0-.975-.182-1.34-.546a1.816 1.816 0 0 1-.547-1.337c0-.527.182-.973.547-1.337a1.825 1.825 0 0 1 1.34-.546c.53 0 .976.182 1.34.546.366.364.548.81.548 1.337 0 .528-.182.973-.547 1.337a1.824 1.824 0 0 1-1.34.546zm-7.362 0c-.529 0-.975-.182-1.34-.546a1.816 1.816 0 0 1-.548-1.337c0-.527.183-.973.547-1.337a1.826 1.826 0 0 1 1.34-.546c.53 0 .976.182 1.341.546.365.364.548.81.548 1.337 0 .528-.183.973-.548 1.337a1.825 1.825 0 0 1-1.34.546zm3.7 25.198c2.82 0 4.971-.873 6.457-2.618 1.485-1.745 2.227-4.137 2.227-7.175 0-2.385-.365-4.532-1.095-6.44-.73-1.909-1.806-3.422-3.228-4.539-1.422-1.117-3.153-1.676-5.192-1.676-2.794 0-4.933.86-6.418 2.58-1.485 1.72-2.228 4.087-2.228 7.1 0 2.385.359 4.544 1.076 6.478.717 1.933 1.787 3.465 3.21 4.595 1.422 1.13 3.152 1.695 5.191 1.695zm-.566 1.506c-2.215 0-4.286-.52-6.211-1.563a11.973 11.973 0 0 1-4.607-4.387c-1.145-1.884-1.718-4.03-1.718-6.441 0-2.31.504-4.47 1.51-6.478 1.008-2.01 2.48-3.623 4.418-4.84 1.939-1.218 4.254-1.827 6.948-1.827 2.215 0 4.285.521 6.21 1.563a11.973 11.973 0 0 1 4.607 4.388c1.145 1.883 1.718 4.03 1.718 6.44 0 2.31-.504 4.47-1.51 6.479-1.007 2.009-2.48 3.622-4.418 4.84-1.938 1.218-4.254 1.826-6.947 1.826zm-30.659-1.808c.881 0 1.624-.3 2.228-.903.15-.151.264-.34.34-.565.075-.226.125-.553.15-.98l.076-1.845v-.226c0-.201-.025-.345-.076-.433-.05-.088-.138-.132-.264-.132-.151 0-.403.063-.755.188-1.258.452-2.165.93-2.718 1.431-.554.503-.831.992-.831 1.47 0 .627.182 1.117.547 1.468.365.352.8.527 1.303.527zm-1.775 1.808c-.428 0-.88-.169-1.36-.508a4.296 4.296 0 0 1-1.188-1.28c-.315-.515-.472-.999-.472-1.45 0-.779.208-1.394.623-1.846.415-.452 1.101-.88 2.058-1.28l3.85-1.583c.48-.2.768-.376.87-.527.1-.15.163-.477.188-.98l.075-2.41c.026-.678-.163-1.25-.566-1.714-.403-.464-.957-.696-1.661-.696a3.57 3.57 0 0 0-1.133.188 3.035 3.035 0 0 0-.944.49c-.252.175-.378.54-.378 1.092l.038.678c0 .2-.32.47-.962.81-.642.339-1.152.508-1.53.508a.458.458 0 0 1-.302-.094.303.303 0 0 1-.113-.245c0-.402.132-.835.396-1.3a4.834 4.834 0 0 1 1.114-1.299 11.58 11.58 0 0 1 2.889-1.92c1.07-.503 1.982-.754 2.737-.754.906 0 1.655.32 2.247.96.591.64.874 1.438.85 2.392l-.19 9.04c-.025.527.088.954.34 1.28.252.327.592.49 1.02.49.629 0 1.095-.138 1.397-.414.126-.126.226-.189.302-.189.126 0 .226.038.302.113a.407.407 0 0 1 .113.302c0 .1-.038.232-.113.395a1.488 1.488 0 0 1-.302.433 5.195 5.195 0 0 1-1.303.96c-.466.239-.9.358-1.302.358-1.158 0-2.077-.652-2.757-1.958h-.113c-.83.678-1.624 1.174-2.379 1.488a6.042 6.042 0 0 1-2.34.47zm-12.006-.414c-.504 0-.756-.113-.756-.339 0-.176.07-.308.208-.395.138-.088.359-.182.66-.283.555-.175.963-.345 1.228-.508.264-.163.396-.471.396-.923V8.625c0-1.582-.579-2.498-1.736-2.75a.348.348 0 0 1-.227-.169.636.636 0 0 1-.075-.32c0-.251.088-.402.264-.452.981-.226 2.102-.603 3.36-1.13l.906-.339c.101-.05.176-.075.227-.075.05 0 .094.031.132.094.038.063.057.12.057.17 0 .15-.044.627-.132 1.43-.089.804-.133 2.034-.133 3.692v18.832c0 .452.133.76.397.923.264.163.673.333 1.227.508.302.1.522.195.66.283.14.087.208.22.208.395 0 .226-.251.34-.755.34-.654 0-1.195-.039-1.623-.114a16.194 16.194 0 0 0-1.435-.075c-.403 0-.881.025-1.435.075-.403.075-.944.113-1.623.113zm-6.193.414c-1.258 0-2.227-.383-2.907-1.148-.68-.766-1.02-1.877-1.02-3.334V17.25c0-.226-.081-.377-.245-.452-.163-.075-.484-.113-.963-.113h-.226c-.126 0-.233-.075-.321-.226a1.025 1.025 0 0 1-.132-.527c0-.05.031-.12.094-.207.063-.088.12-.157.17-.207 1.36-.954 2.48-1.959 3.36-3.013.101-.126.202-.233.302-.32a.504.504 0 0 1 .34-.132c.353 0 .516.138.491.414l-.189 1.695v.15c0 .226.076.377.227.453.15.075.378.112.68.112h4.304c.1 0 .189.082.264.245.076.163.113.358.113.584 0 .226-.037.446-.113.66-.075.213-.164.32-.264.32h-3.738c-.68 0-1.101.05-1.265.15-.164.1-.246.402-.246.904v7.42c0 1.03.215 1.826.643 2.392.427.564 1.044.847 1.85.847.704 0 1.264-.05 1.68-.15.415-.101.786-.277 1.114-.528l.15-.075c.177 0 .265.175.265.527 0 .15-.227.42-.68.81-.453.389-1.013.734-1.68 1.035a4.947 4.947 0 0 1-2.058.452zm-17.897-.414c-.503 0-.755-.138-.755-.414 0-.176.063-.295.189-.358s.352-.144.68-.245c.956-.226 1.434-.703 1.434-1.431V19.51c0-.753-.113-1.362-.34-1.827-.226-.464-.628-.76-1.208-.885a.476.476 0 0 1-.264-.188.5.5 0 0 1-.113-.301c0-.1.038-.195.113-.283a.535.535 0 0 1 .227-.17c1.007-.326 2.253-.94 3.738-1.845.276-.176.465-.264.566-.264.126 0 .189.088.189.264 0 .678-.038 1.62-.114 2.825 0 .05.026.075.076.075a8.595 8.595 0 0 1 2.114-1.845c.78-.477 1.523-.716 2.228-.716.529 0 .963.113 1.303.339.34.226.51.515.51.866 0 .402-.158.83-.473 1.28-.314.453-.648.679-1 .679-.252 0-.604-.113-1.057-.339a17.413 17.413 0 0 1-.51-.188c-.264-.1-.497-.151-.699-.151-.73 0-1.346.238-1.85.715-.503.478-.755 1.294-.755 2.449v7.608c0 .326.164.596.491.81.327.213.83.42 1.51.621.302.1.523.188.661.264a.364.364 0 0 1 .208.339c0 .276-.252.414-.755.414-.68 0-1.271-.038-1.775-.113a18.808 18.808 0 0 0-1.51-.075c-.403 0-.881.025-1.435.075-.403.075-.944.113-1.624.113zm-10.723-1.394c.881 0 1.624-.3 2.228-.903.15-.151.264-.34.34-.565.075-.226.126-.553.15-.98l.076-1.845v-.226c0-.201-.025-.345-.075-.433-.05-.088-.139-.132-.264-.132-.151 0-.403.063-.756.188-1.258.452-2.164.93-2.718 1.431-.554.503-.83.992-.83 1.47 0 .627.182 1.117.547 1.468.365.352.799.527 1.302.527zM70.96 30.47c-.428 0-.881-.169-1.36-.508a4.294 4.294 0 0 1-1.189-1.28c-.315-.515-.472-.999-.472-1.45 0-.779.208-1.394.623-1.846.416-.452 1.102-.88 2.058-1.28l3.851-1.583c.478-.2.768-.376.869-.527.1-.15.163-.477.188-.98l.076-2.41c.025-.678-.164-1.25-.566-1.714-.403-.464-.957-.696-1.662-.696-.377 0-.755.062-1.132.188a3.033 3.033 0 0 0-.944.49c-.252.175-.378.54-.378 1.092l.038.678c0 .2-.321.47-.963.81-.642.339-1.152.508-1.53.508a.457.457 0 0 1-.301-.094.303.303 0 0 1-.113-.245c0-.402.132-.835.396-1.3a4.83 4.83 0 0 1 1.114-1.299 11.572 11.572 0 0 1 2.888-1.92c1.07-.503 1.982-.754 2.738-.754.906 0 1.655.32 2.246.96.592.64.875 1.438.85 2.392l-.189 9.04c-.025.527.088.954.34 1.28.252.327.591.49 1.02.49.628 0 1.094-.138 1.396-.414.126-.126.227-.189.302-.189.126 0 .227.038.302.113a.407.407 0 0 1 .114.302c0 .1-.038.232-.114.395a1.495 1.495 0 0 1-.302.433 5.196 5.196 0 0 1-1.302.96c-.466.239-.9.358-1.303.358-1.158 0-2.077-.652-2.756-1.958h-.114c-.83.678-1.623 1.174-2.378 1.488a6.041 6.041 0 0 1-2.341.47zm-27.865-.339c-.73 0-1.095-.138-1.095-.414 0-.176.1-.314.302-.414.201-.1.516-.188.944-.264.956-.175 1.617-.47 1.982-.885.365-.414.548-1.086.548-2.015V9.19c0-.854-.183-1.469-.548-1.845-.365-.377-1.026-.653-1.982-.829-.83-.15-1.246-.402-1.246-.753 0-.277.365-.415 1.095-.415l2.34.038c.378.025 1.008.038 1.889.038.705 0 1.195-.013 1.472-.038l2.19-.038c.73 0 1.095.138 1.095.415 0 .351-.415.602-1.246.753-.88.15-1.44.427-1.68.829-.24.401-.359 1.016-.359 1.845v7.043c0 .477.063.716.189.716s.29-.069.49-.207c.202-.138.378-.295.53-.471l7.55-7.684c.379-.376.567-.753.567-1.13a.883.883 0 0 0-.717-.866c-.428-.125-.73-.238-.906-.339-.176-.1-.265-.238-.265-.414 0-.276.365-.414 1.096-.414h2.038c.58 0 2.19-.038 4.833-.113l1.284-.038c.252 0 .453.038.604.113.151.075.227.176.227.301 0 .352-.416.603-1.246.754-2.366.427-4.28 1.255-5.74 2.486a58.041 58.041 0 0 0-3.643 3.276 103.726 103.726 0 0 0-3.606 3.767.254.254 0 0 0-.075.188c0 .15.088.314.264.49l9.137 9.717c.881.98 1.536 1.613 1.964 1.902.428.289 1.157.546 2.19.772.453.1.774.201.962.301.19.1.284.227.284.377 0 .276-.366.414-1.095.414-1.007 0-1.913-.037-2.719-.113a52.292 52.292 0 0 0-2.53-.075h-1.057c-.327.025-.994.038-2.001.038-.73 0-1.095-.138-1.095-.414 0-.176.075-.308.226-.396.151-.088.416-.17.794-.245.704-.176 1.056-.427 1.056-.753 0-.201-.188-.515-.566-.942l-8.004-8.813c-.428-.427-.718-.64-.869-.64-.1 0-.15.175-.15.527 0 1.531.062 4.03.188 7.495.05.904.245 1.632.585 2.185.34.552.95.903 1.831 1.054.429.076.743.163.944.264.202.1.303.238.303.414 0 .276-.365.414-1.096.414-.805 0-1.535-.05-2.19-.15a9.23 9.23 0 0 0-1.51-.113c-.428 0-.862.019-1.302.056-.44.038-.762.057-.963.057-.957.1-1.787.15-2.492.15z"/>
        <path fill="#FFF" d="M8.873 1.803a15.86 15.86 0 0 0-4.459 3.26L15.372 16.02h7.718L8.873 1.803z"/>
        <path fill="#7D034D" d="M4.414 5.062A15.766 15.766 0 0 0 0 16.02h15.372L4.414 5.062z"/>
        <path fill="#E7E6E9" d="M15.372 16.02L4.414 26.977a15.861 15.861 0 0 0 4.459 3.26L23.09 16.02h-7.718z"/>
        <path fill="#621548" d="M0 16.02c0 4.254 1.682 8.114 4.414 10.957L15.372 16.02H0z"/>
        <path fill="#220A3C" d="M15.824.196c-2.494 0-4.853.579-6.951 1.607L23.09 16.02 8.873 30.237a15.757 15.757 0 0 0 6.951 1.607c8.74 0 15.824-7.085 15.824-15.824 0-8.74-7.085-15.824-15.824-15.824"/>
    </g>
</svg>
