<?xml version="1.0" encoding="UTF-8"?>
<svg width="162px" height="48px" viewBox="0 0 162 48" version="1.1" xmlns="http://www.w3.org/2000/svg" xmlns:xlink="http://www.w3.org/1999/xlink">
    <!-- Generator: Sketch 52.6 (67491) - http://www.bohemiancoding.com/sketch -->
    <title>Group 79</title>
    <desc>Created with Sketch.</desc>
    <defs>
        <path d="M90.3785318,0 C90.1610162,0 89.97413,0.186507463 89.97413,0.434626866 C89.97413,0.682746269 90.1610162,0.869253731 90.3785318,0.869253731 L91.4984136,0.869253731 L91.4984136,20.8623284 L90.1918848,20.8623284 C89.9430222,20.8623284 89.7563752,21.079403 89.7563752,21.2964776 C89.7563752,21.5758806 89.9430222,21.7313433 90.1918848,21.7313433 L104.128192,21.7313433 C104.377055,21.7313433 104.563941,21.5758806 104.563941,21.2964776 L104.563941,17.1985672 C104.563941,16.9814925 104.346186,16.7952239 104.097084,16.7952239 C103.848222,16.7952239 103.630467,16.9814925 103.630467,17.1985672 L103.630467,20.8623284 L96.3512349,20.8623284 L96.3512349,0.869253731 L97.9066263,0.869253731 C98.1246204,0.869253731 98.3423752,0.682746269 98.3423752,0.434626866 C98.3423752,0.186507463 98.1246204,0 97.9066263,0 L90.3785318,0 Z M69.2771344,0 C69.0593796,0 68.8727326,0.186507463 68.8727326,0.434626866 C68.8727326,0.682746269 69.0593796,0.869253731 69.2771344,0.869253731 L70.3970162,0.869253731 L70.3970162,20.8623284 L69.0904874,20.8623284 C68.8418641,20.8623284 68.6549778,21.079403 68.6549778,21.2964776 C68.6549778,21.5758806 68.8418641,21.7313433 69.0904874,21.7313433 L83.0267947,21.7313433 C83.2756573,21.7313433 83.4623043,21.5758806 83.4623043,21.2964776 L83.4623043,17.1985672 C83.4623043,16.9814925 83.2445495,16.7952239 82.9956869,16.7952239 C82.7468242,16.7952239 82.5288301,16.9814925 82.5288301,17.1985672 L82.5288301,20.8623284 L75.2495982,20.8623284 L75.2495982,0.869253731 L76.805229,0.869253731 C77.0229838,0.869253731 77.2407386,0.682746269 77.2407386,0.434626866 C77.2407386,0.186507463 77.0229838,0 76.805229,0 L69.2771344,0 Z M45.9048656,0 C45.6248951,0 45.4691167,0.217313433 45.4691167,0.434626866 C45.4691167,0.682746269 45.6248951,0.869253731 45.9048656,0.869253731 L47.2113944,0.869253731 L47.2113944,20.8623284 L45.7490871,20.8623284 C45.4691167,20.8623284 45.3138168,21.0483582 45.3138168,21.2964776 C45.3138168,21.5140299 45.4691167,21.7313433 45.7490871,21.7313433 L59.8411728,21.7313433 C60.0900355,21.7313433 60.307551,21.5450746 60.307551,21.2964776 L60.307551,17.2921791 C60.307551,16.9814925 60.0586883,16.8262687 59.8411728,16.8262687 C59.623418,16.8262687 59.3745554,16.9814925 59.3745554,17.2921791 L59.3745554,20.8623284 L52.0642157,20.8623284 L52.0642157,10.8656716 L58.2546736,10.8656716 L58.2546736,12.4489552 C58.2546736,12.7283582 58.4724284,12.8835821 58.7523988,12.8835821 C58.9699143,12.8835821 59.1876691,12.7283582 59.1876691,12.4489552 L59.1876691,8.28895522 C59.1876691,8.00979104 58.9390458,7.85432836 58.7210517,7.85432836 C58.4724284,7.85432836 58.2546736,8.00979104 58.2546736,8.28895522 L58.2546736,9.99641791 L52.0642157,9.99641791 L52.0642157,0.869253731 L59.1568006,0.869253731 L59.1568006,3.97373134 C59.1568006,4.25313433 59.4056632,4.40835821 59.623418,4.40835821 C59.8411728,4.40835821 60.0900355,4.25313433 60.0900355,3.97373134 L60.0900355,0.434626866 C60.0900355,0.186507463 59.9033885,0 59.623418,0 L45.9048656,0 Z M27.9140118,0 C27.6029335,0 27.4162866,0.186507463 27.4162866,0.434626866 C27.4162866,0.682746269 27.6029335,0.869253731 27.9140118,0.869253731 L29.3449719,0.869253731 L29.3449719,20.8623284 L27.6651492,20.8623284 C27.4162866,20.8623284 27.2296396,21.0483582 27.2296396,21.2964776 C27.2296396,21.5758806 27.4162866,21.7313433 27.6651492,21.7313433 L36.0640236,21.7313433 C36.3131256,21.7313433 36.4997725,21.5758806 36.4997725,21.2964776 C36.4997725,21.0483582 36.3131256,20.8623284 36.0640236,20.8623284 L34.1977932,20.8623284 L34.1977932,0.869253731 L35.7531846,0.869253731 C36.0020473,0.869253731 36.1889335,0.682746269 36.1889335,0.434626866 C36.1889335,0.186507463 36.0020473,0 35.7531846,0 L27.9140118,0 Z M16.6115805,0 C16.3938257,0 16.1760709,0.155223881 16.1760709,0.40358209 C16.1760709,0.651940299 16.3938257,0.869253731 16.6115805,0.869253731 L18.7269129,0.869253731 L13.1897194,14.9946269 L7.27923191,0.900298507 L8.55465288,0.900298507 C8.80351551,0.900298507 8.99016248,0.682746269 8.99016248,0.434626866 C8.99016248,0.217313433 8.80351551,0.0310447761 8.55465288,0.0310447761 L0.622156573,0.0310447761 C0.342186115,0.0310447761 0.155539143,0.186507463 0.155539143,0.434626866 C0.155539143,0.714029851 0.342186115,0.900298507 0.622156573,0.900298507 L1.86646972,0.900298507 L10.6388774,21.9176119 C10.7322009,22.1038806 10.88774,22.1970149 11.074387,22.1970149 C11.261034,22.1970149 11.4165731,22.1038806 11.4787888,21.9176119 L19.6912555,0.869253731 L21.4332939,0.869253731 C21.7132644,0.869253731 21.8999114,0.651940299 21.8999114,0.40358209 C21.8999114,0.155223881 21.7132644,0 21.4332939,0 L16.6115805,0 Z" id="path-1"></path>
        <path d="M4.70206795,0.868298507 C3.13758346,1.01301493 1.55467356,0.946149254 0.0124431315,0.675343284 L2.12681832,2.78543284 C2.25699261,2.91534328 2.39434564,3.03044776 2.54294535,3.12668657 L2.53935598,3.13026866 C3.95141211,4.30973134 6.03587592,4.19462687 7.30675037,2.86710448 C7.87889513,2.26626866 8.19499852,1.51355224 8.25793205,0.738149254 C8.27659675,0.549492537 8.27683604,0.356537313 8.25793205,0.167402985 C7.0988065,0.523223881 5.90594092,0.757014925 4.70206795,0.868298507 Z" id="path-3"></path>
        <path d="M0.830818316,4.73146269 C0.719308715,5.93289552 0.485282127,7.12334328 0.128499261,8.28059701 C0.318017725,8.29898507 0.511364845,8.29898507 0.700644018,8.28059701 C1.47738257,8.21731343 2.23186706,7.90232836 2.8336839,7.33110448 C4.16390251,6.06304478 4.27900148,3.98256716 3.09762186,2.57337313 L3.09355391,2.57695522 C2.99711965,2.42865672 2.88202068,2.29158209 2.75184638,2.16167164 L0.637710487,0.0515820896 C0.908827179,1.59068657 0.975828656,3.17062687 0.830818316,4.73146269 Z" id="path-5"></path>
        <path d="M0.128499261,0.150686567 C0.485282127,1.30746269 0.719308715,2.49814925 0.830818316,3.69958209 C0.975828656,5.26065672 0.908827179,6.84035821 0.637710487,8.37946269 L2.75184638,6.26937313 C2.88202068,6.13946269 2.99711965,6.00238806 3.09355391,5.85408955 L3.09762186,5.85767164 C4.27900148,4.44847761 4.16390251,2.36823881 2.8336839,1.0999403 C2.23186706,0.528955224 1.47738257,0.213492537 0.700644018,0.150686567 C0.605884786,0.141373134 0.509689808,0.136597015 0.413973412,0.136597015 C0.318496307,0.136597015 0.223019202,0.141373134 0.128499261,0.150686567 Z" id="path-7"></path>
        <path d="M2.53935598,1.00226866 L2.54294535,1.00608955 C2.39434564,1.10232836 2.25699261,1.21719403 2.12681832,1.34710448 L0.0124431315,3.45695522 C1.55467356,3.18638806 3.13758346,3.11952239 4.70206795,3.26423881 C5.90594092,3.37552239 7.0988065,3.60931343 8.25793205,3.96513433 C8.27683604,3.776 8.27659675,3.58328358 8.25793205,3.39414925 C8.19499852,2.61898507 7.87889513,1.86626866 7.30675037,1.26543284 C6.6233353,0.551641791 5.70493648,0.18841791 4.78223043,0.18841791 C3.98874151,0.18841791 3.19238109,0.457074627 2.53935598,1.00226866 Z" id="path-9"></path>
        <path d="M1.06293058,1.26543284 C0.49078582,1.86626866 0.174921713,2.61898507 0.111748892,3.39414925 C0.093084195,3.58328358 0.093084195,3.776 0.111748892,3.96513433 C1.27111374,3.60931343 2.46397932,3.37552239 3.66785229,3.26423881 C5.23209749,3.11952239 6.81500739,3.18638806 8.35723781,3.45695522 L6.24286263,1.34710448 C6.11268833,1.21719403 5.9753353,1.10232836 5.8267356,1.00608955 L5.83032496,1.00226866 C5.17777843,0.457074627 4.38117873,0.18841791 3.58768981,0.18841791 C2.66474446,0.18841791 1.74634564,0.551641791 1.06293058,1.26543284 Z" id="path-11"></path>
        <path d="M3.36179911,0.150686567 C2.58506056,0.213492537 1.83105465,0.528955224 1.22875923,1.0999403 C-0.10145938,2.36823881 -0.216797637,4.44847761 0.965299852,5.85767164 L0.968649926,5.85408955 C1.06532349,6.00238806 1.18066174,6.13946269 1.31059675,6.26937313 L3.42497194,8.37946269 C3.15361595,6.84035821 3.08661448,5.26065672 3.23162482,3.69958209 C3.34313442,2.49814925 3.5774003,1.30746269 3.93394387,0.150686567 C3.83942393,0.141373134 3.74394682,0.136597015 3.64870901,0.136597015 C3.55275332,0.136597015 3.45679764,0.141373134 3.36179911,0.150686567 Z" id="path-13"></path>
        <path d="M1.31059675,2.16167164 C1.18066174,2.29158209 1.06532349,2.42865672 0.968649926,2.57695522 L0.965299852,2.57337313 C-0.216797637,3.98256716 -0.10145938,6.06304478 1.22875923,7.33110448 C1.83105465,7.90232836 2.58506056,8.21731343 3.36179911,8.28059701 C3.55131758,8.29898507 3.74442541,8.29898507 3.93394387,8.28059701 C3.5774003,7.12334328 3.34313442,5.93289552 3.23162482,4.73146269 C3.08661448,3.17062687 3.15361595,1.59068657 3.42497194,0.0515820896 L1.31059675,2.16167164 Z" id="path-15"></path>
        <path d="M0.111748892,0.738149254 C0.174921713,1.51355224 0.49078582,2.26626866 1.06293058,2.86710448 C2.33380502,4.19462687 4.41850812,4.30973134 5.83032496,3.13026866 L5.8267356,3.12668657 C5.9753353,3.03044776 6.11268833,2.91534328 6.24286263,2.78543284 L8.35723781,0.675343284 C6.81500739,0.946149254 5.23209749,1.01301493 3.66785229,0.868298507 C2.46397932,0.757014925 1.27111374,0.523223881 0.111748892,0.167402985 C0.093084195,0.356537313 0.093084195,0.549492537 0.111748892,0.738149254 Z" id="path-17"></path>
        <path d="M1.17563663,3.26710448 C1.64536484,4.28776119 2.26369276,5.25277612 3.02631315,6.1158209 C3.98850222,7.21528358 5.13685968,8.11080597 6.40605908,8.77898507 L6.40605908,6.2039403 C6.40605908,2.79832836 3.63985524,0.0379701493 0.227565731,0.0379701493 C0.385497784,1.15128358 0.706387001,2.24167164 1.17563663,3.26710448 Z" id="path-19"></path>
        <path d="M0.231155096,6.2039403 L0.231155096,8.77898507 C1.5005938,8.11080597 2.64871196,7.21528358 3.61114032,6.1158209 C4.37352142,5.25277612 4.99208863,4.28776119 5.46157755,3.26710448 C5.93106647,2.24167164 6.25195569,1.15104478 6.40988774,0.0379701493 C2.99735894,0.0379701493 0.231155096,2.79832836 0.231155096,6.2039403 Z" id="path-21"></path>
        <path d="M0.121081241,3.00632836 C0.121081241,3.18997015 0.136635155,3.36835821 0.173485968,3.54125373 L0.168221566,3.54125373 C0.33117873,5.37170149 1.88657016,6.76155224 3.72576071,6.71928358 C4.55633973,6.69850746 5.31297784,6.38901493 5.90689808,5.88561194 C6.05382275,5.76501493 6.19069719,5.62841791 6.31153914,5.48179104 C5.23951551,4.91534328 4.23042541,4.23880597 3.30030133,3.46770149 C2.09140325,2.46614925 1.01961891,1.30197015 0.121081241,0.0222089552 L0.121081241,3.00632836 Z" id="path-23"></path>
        <path d="M3.1550517,3.46770149 C2.22492762,4.23880597 1.21607681,4.91534328 0.144053176,5.48179104 C0.264895126,5.62841791 0.401530281,5.76501493 0.548694239,5.88561194 C1.14261448,6.38901493 1.89925258,6.69850746 2.72959232,6.71928358 C4.56878287,6.76155224 6.12441359,5.37170149 6.28713146,3.54125373 L6.28162777,3.54125373 C6.31847858,3.36835821 6.33451108,3.18997015 6.33451108,3.00632836 L6.33451108,0.0222089552 C5.43573412,1.30197015 4.36371049,2.46614925 3.1550517,3.46770149 Z" id="path-25"></path>
        <path d="M6.41658789,6.25074627 L8.99686263,6.25074627 C8.32732644,4.9838806 7.42998523,3.83785075 6.32828951,2.87761194 C5.46325258,2.11653731 4.49651699,1.49946269 3.47354801,1.03092537 C2.4460325,0.56238806 1.35366913,0.242149254 0.237855244,0.0845373134 C0.237855244,3.48991045 3.00405908,6.25074627 6.41658789,6.25074627 Z" id="path-27"></path>
        <path d="M3.67503102,3.1878209 C2.67120532,4.39426866 1.50442245,5.4638806 0.222301329,6.36083582 L3.21248154,6.36083582 C3.39649631,6.36083582 3.57500739,6.34507463 3.74849335,6.30829851 L3.74849335,6.31355224 C5.5824195,6.15092537 6.97509306,4.59868657 6.93297784,2.76322388 C6.91192024,1.93432836 6.6020384,1.17946269 6.097613,0.586507463 C5.97677105,0.439880597 5.84013589,0.303522388 5.69297194,0.182686567 C5.12537371,1.25277612 4.44746233,2.25958209 3.67503102,3.1878209 Z" id="path-29"></path>
        <path d="M0.222301329,0.159761194 C1.50442245,1.05671642 2.67120532,2.12632836 3.67503102,3.33277612 C4.44746233,4.26101493 5.12537371,5.2678209 5.69297194,6.33767164 C5.84013589,6.21707463 5.97677105,6.08071642 6.097613,5.93408955 C6.6020384,5.34137313 6.91192024,4.58602985 6.93297784,3.75737313 C6.97509306,1.92214925 5.5824195,0.369671642 3.74849335,0.207044776 L3.74849335,0.212298507 C3.57500739,0.175761194 3.39649631,0.159761194 3.21248154,0.159761194 L0.222301329,0.159761194 Z" id="path-31"></path>
        <path d="M0.0495332349,2.70471642 C0.0495332349,6.11032836 2.81549778,8.87092537 6.22802659,8.87092537 C6.06985524,7.75737313 5.74920532,6.66722388 5.2794771,5.64179104 C4.80998818,4.62113433 4.19166027,3.6561194 3.42927917,2.79307463 C2.46685081,1.69337313 1.31849335,0.797850746 0.0495332349,0.129910448 L0.0495332349,2.70471642 Z" id="path-33"></path>
        <path d="M2.8442127,2.79307463 C2.08159232,3.6561194 1.4632644,4.62113433 0.994014771,5.64179104 C0.524286558,6.66722388 0.203397341,7.75737313 0.045704579,8.87092537 C3.4577548,8.87092537 6.22419793,6.11032836 6.22419793,2.70471642 L6.22419793,0.129910448 C4.95475923,0.797850746 3.80664106,1.69337313 2.8442127,2.79307463 Z" id="path-35"></path>
        <path d="M2.72959232,0.040119403 C1.89925258,0.0611343284 1.14261448,0.370626866 0.548694239,0.873791045 C0.401530281,0.994626866 0.264895126,1.13098507 0.144053176,1.27785075 C1.21607681,1.8440597 2.22492762,2.52059701 3.1550517,3.29170149 C4.36371049,4.29325373 5.43573412,5.45767164 6.33451108,6.73719403 L6.33451108,3.75331343 C6.33451108,3.56943284 6.31847858,3.39128358 6.28162777,3.21814925 L6.28713146,3.21814925 C6.12656721,1.41516418 4.61448744,0.0394029851 2.81095126,0.0394029851 C2.78391137,0.0394029851 2.7566322,0.039641791 2.72959232,0.040119403 Z" id="path-37"></path>
        <path d="M0.168221566,3.21814925 L0.173485968,3.21814925 C0.136635155,3.39128358 0.121081241,3.56943284 0.121081241,3.75331343 L0.121081241,6.73719403 C1.01961891,5.45767164 2.09140325,4.29325373 3.30030133,3.29170149 C4.23042541,2.52059701 5.23951551,1.8440597 6.31153914,1.27785075 C6.19069719,1.13098507 6.05382275,0.994626866 5.90689808,0.873791045 C5.31297784,0.370626866 4.55633973,0.0611343284 3.72576071,0.040119403 C3.69872083,0.039641791 3.67168095,0.0394029851 3.64440177,0.0394029851 C1.84110487,0.0394029851 0.329025111,1.41516418 0.168221566,3.21814925 Z" id="path-39"></path>
        <path d="M5.61400591,0.97361194 C4.59127622,1.44238806 3.62430133,2.05946269 2.7592644,2.82053731 C1.65780798,3.78077612 0.760466765,4.92680597 0.0909305761,6.19319403 L2.67096603,6.19319403 C6.08349483,6.19319403 8.84969867,3.43283582 8.84969867,0.0272238806 C7.73412408,0.184835821 6.64128213,0.505074627 5.61400591,0.97361194 Z" id="path-41"></path>
        <path d="M0.0909305761,0.0312835821 C0.760466765,1.29791045 1.65756869,2.4439403 2.7592644,3.4041791 C3.62430133,4.16525373 4.59127622,4.78232836 5.61400591,5.25086567 C6.64128213,5.71940299 7.73412408,6.03964179 8.84969867,6.19725373 C8.84969867,2.7918806 6.08349483,0.0312835821 2.67096603,0.0312835821 L0.0909305761,0.0312835821 Z" id="path-43"></path>
        <path d="M3.72145347,0.159761194 C3.5374387,0.159761194 3.35892762,0.175761194 3.18568095,0.212298507 L3.18568095,0.207044776 C1.35127622,0.369671642 -0.0411580502,1.92191045 0.000957163959,3.75737313 C0.022014771,4.58602985 0.332135894,5.34137313 0.8365613,5.93408955 C0.95740325,6.08071642 1.0940384,6.21707463 1.24120236,6.33767164 C1.8085613,5.2678209 2.48647267,4.26101493 3.25914328,3.33277612 C4.26272969,2.12632836 5.42927326,1.05671642 6.71163368,0.159761194 L3.72145347,0.159761194 Z" id="path-45"></path>
        <path d="M0.8365613,0.586507463 C0.332135894,1.17946269 0.022014771,1.93432836 0.000957163959,2.76322388 C-0.0411580502,4.59868657 1.35127622,6.15092537 3.18568095,6.31355224 L3.18568095,6.30829851 C3.35892762,6.34507463 3.5374387,6.36083582 3.72145347,6.36083582 L6.71163368,6.36083582 C5.42927326,5.4638806 4.26272969,4.39426866 3.25914328,3.1878209 C2.48647267,2.25958209 1.8085613,1.25277612 1.24120236,0.182686567 C1.0940384,0.303522388 0.95740325,0.439880597 0.8365613,0.586507463 Z" id="path-47"></path>
        <path d="M6.41658789,0.0885970149 C3.00405908,0.0885970149 0.237855244,2.84919403 0.237855244,6.25456716 C1.35390842,6.09671642 2.4460325,5.77671642 3.47354801,5.3081791 C4.4962777,4.83940299 5.46349188,4.22232836 6.32828951,3.46149254 C7.42998523,2.50101493 8.32732644,1.35498507 8.99686263,0.0885970149 L6.41658789,0.0885970149 Z" id="path-49"></path>
        <path d="M12.7175982,0 L12.7175982,0.506507463 C13.2497814,0.506507463 13.515873,0.656716418 13.515873,0.957134328 C13.515873,1.10710448 13.4158493,1.37456716 13.2165199,1.75928358 C13.0169513,2.144 12.8030251,2.58029851 12.5749808,3.0681791 L9.01050222,10.6963582 L5.36083604,2.95570149 C5.13255244,2.48644776 4.93776957,2.09241791 4.77600886,1.77337313 C4.61448744,1.45432836 4.53384638,1.19164179 4.53384638,0.985313433 C4.53384638,0.79761194 4.59558346,0.671044776 4.71905761,0.605373134 C4.84253176,0.539462687 4.97103102,0.506507463 5.10407681,0.506507463 L5.10407681,0 L0,0 L0,0.506507463 C0.323282127,0.600597015 0.570230428,0.694208955 0.741323486,0.788059701 C0.912416544,0.882149254 1.04546233,1.0321194 1.14046086,1.23868657 L6.27325258,12.2442985 C6.48239291,12.6760597 6.6580325,13.0373731 6.80064993,13.3282388 C6.94326736,13.6191045 7.01457607,13.8113433 7.01457607,13.905194 C7.01457607,14.0928955 6.92914919,14.2244776 6.75805613,14.2992239 L6.75805613,14.8059701 L11.1205702,14.8059701 L11.1205702,14.2992239 C11.0447149,14.2428657 10.9827386,14.1867463 10.9351196,14.1303881 C10.88774,14.0742687 10.8638109,13.9990448 10.8638109,13.905194 C10.8638109,13.8113433 10.9210015,13.6518209 11.0351433,13.4268657 C11.1492851,13.2016716 11.2919025,12.9012537 11.4627563,12.5258507 L16.5098818,1.57635821 C16.5859764,1.40728358 16.7094505,1.18686567 16.8807829,0.914865672 C17.0516366,0.642626866 17.3272999,0.506507463 17.7075332,0.506507463 L17.7075332,0 L12.7175982,0 Z" id="path-51"></path>
    </defs>
    <g id="-Dashboard" stroke="none" stroke-width="1" fill="none" fill-rule="evenodd">
        <g id="Hesap-Ayarları" transform="translate(-22.000000, -11.000000)">
            <g id="Group-79" transform="translate(22.000000, 11.000000)">
                <g id="Group-3" transform="translate(57.429838, 14.567164)">
                    <mask id="mask-2" fill="white">
                        <use xlink:href="#path-1"></use>
                    </mask>
                    <g id="Clip-2"></g>
                    <polygon id="Fill-1" fill="#2B3445" mask="url(#mask-2)" points="-1.04091581 23.3910448 105.760396 23.3910448 105.760396 -1.19402985 -1.04091581 -1.19402985"></polygon>
                </g>
                <g id="Group-6" transform="translate(36.850812, 34.626866)">
                    <mask id="mask-4" fill="white">
                        <use xlink:href="#path-3"></use>
                    </mask>
                    <g id="Clip-5"></g>
                    <polygon id="Fill-4" fill="#DDBB74" mask="url(#mask-4)" points="-1.18401182 5.13814925 9.46850517 5.13814925 9.46850517 -1.02638806 -1.18401182 -1.02638806"></polygon>
                </g>
                <g id="Group-9" transform="translate(34.697194, 36.776119)">
                    <mask id="mask-6" fill="white">
                        <use xlink:href="#path-5"></use>
                    </mask>
                    <g id="Clip-8"></g>
                    <polygon id="Fill-7" fill="#DDBB74" mask="url(#mask-6)" points="-1.06795569 9.48823881 5.10934121 9.48823881 5.10934121 -1.14268657 -1.06795569 -1.14268657"></polygon>
                </g>
                <g id="Group-12" transform="translate(34.697194, 2.626866)">
                    <mask id="mask-8" fill="white">
                        <use xlink:href="#path-7"></use>
                    </mask>
                    <g id="Clip-11"></g>
                    <polygon id="Fill-10" fill="#DDBB74" mask="url(#mask-8)" points="-1.06795569 9.57349254 5.10934121 9.57349254 5.10934121 -1.05743284 -1.06795569 -1.05743284"></polygon>
                </g>
                <g id="Group-15" transform="translate(36.850812, 9.074627)">
                    <mask id="mask-10" fill="white">
                        <use xlink:href="#path-9"></use>
                    </mask>
                    <g id="Clip-14"></g>
                    <polygon id="Fill-13" fill="#DDBB74" mask="url(#mask-10)" points="-1.18401182 5.15916418 9.46850517 5.15916418 9.46850517 -1.00561194 -1.18401182 -1.00561194"></polygon>
                </g>
                <g id="Group-18" transform="translate(2.632201, 9.074627)">
                    <mask id="mask-12" fill="white">
                        <use xlink:href="#path-11"></use>
                    </mask>
                    <g id="Clip-17"></g>
                    <polygon id="Fill-16" fill="#DDBB74" mask="url(#mask-12)" points="-1.09858493 5.15916418 9.55393205 5.15916418 9.55393205 -1.00561194 -1.09858493 -1.00561194"></polygon>
                </g>
                <g id="Group-21" transform="translate(9.093058, 2.626866)">
                    <mask id="mask-14" fill="white">
                        <use xlink:href="#path-13"></use>
                    </mask>
                    <g id="Clip-20"></g>
                    <polygon id="Fill-19" fill="#DDBB74" mask="url(#mask-14)" points="-1.04689808 9.57349254 5.13039882 9.57349254 5.13039882 -1.05743284 -1.04689808 -1.05743284"></polygon>
                </g>
                <g id="Group-24" transform="translate(9.093058, 36.776119)">
                    <mask id="mask-16" fill="white">
                        <use xlink:href="#path-15"></use>
                    </mask>
                    <g id="Clip-23"></g>
                    <polygon id="Fill-22" fill="#DDBB74" mask="url(#mask-16)" points="-1.04689808 9.48823881 5.13039882 9.48823881 5.13039882 -1.14268657 -1.04689808 -1.14268657"></polygon>
                </g>
                <g id="Group-27" transform="translate(2.632201, 34.626866)">
                    <mask id="mask-18" fill="white">
                        <use xlink:href="#path-17"></use>
                    </mask>
                    <g id="Clip-26"></g>
                    <polygon id="Fill-25" fill="#DDBB74" mask="url(#mask-18)" points="-1.09858493 5.13814925 9.55369276 5.13814925 9.55369276 -1.02638806 -1.09858493 -1.02638806"></polygon>
                </g>
                <g id="Group-30" transform="translate(25.604136, 36.298507)">
                    <mask id="mask-20" fill="white">
                        <use xlink:href="#path-19"></use>
                    </mask>
                    <g id="Clip-29"></g>
                    <polygon id="Fill-28" fill="#DDBB74" mask="url(#mask-20)" points="-0.969128508 9.97301493 7.60227474 9.97301493 7.60227474 -1.15629851 -0.969128508 -1.15629851"></polygon>
                </g>
                <g id="Group-33" transform="translate(15.553914, 36.298507)">
                    <mask id="mask-22" fill="white">
                        <use xlink:href="#path-21"></use>
                    </mask>
                    <g id="Clip-32"></g>
                    <polygon id="Fill-31" fill="#DDBB74" mask="url(#mask-22)" points="-0.965060561 9.97301493 7.60634269 9.97301493 7.60634269 -1.15629851 -0.965060561 -1.15629851"></polygon>
                </g>
                <g id="Group-36" transform="translate(24.886263, 41.074627)">
                    <mask id="mask-24" fill="white">
                        <use xlink:href="#path-23"></use>
                    </mask>
                    <g id="Clip-35"></g>
                    <polygon id="Fill-34" fill="#DDBB74" mask="url(#mask-24)" points="-1.07537371 7.91426866 7.50799409 7.91426866 7.50799409 -1.1718209 -1.07537371 -1.1718209"></polygon>
                </g>
                <g id="Group-39" transform="translate(16.511078, 41.074627)">
                    <mask id="mask-26" fill="white">
                        <use xlink:href="#path-25"></use>
                    </mask>
                    <g id="Clip-38"></g>
                    <polygon id="Fill-37" fill="#DDBB74" mask="url(#mask-26)" points="-1.05240177 7.91426866 7.53096603 7.91426866 7.53096603 -1.1718209 -1.05240177 -1.1718209"></polygon>
                </g>
                <g id="Group-42" transform="translate(36.132939, 25.791045)">
                    <mask id="mask-28" fill="white">
                        <use xlink:href="#path-27"></use>
                    </mask>
                    <g id="Clip-41"></g>
                    <polygon id="Fill-40" fill="#DDBB74" mask="url(#mask-28)" points="-0.958599705 7.44477612 10.1933176 7.44477612 10.1933176 -1.10925373 -0.958599705 -1.10925373"></polygon>
                </g>
                <g id="Group-45" transform="translate(40.918759, 16.477612)">
                    <mask id="mask-30" fill="white">
                        <use xlink:href="#path-29"></use>
                    </mask>
                    <g id="Clip-44"></g>
                    <polygon id="Fill-43" fill="#DDBB74" mask="url(#mask-30)" points="-0.974153619 7.55486567 8.13038996 7.55486567 8.13038996 -1.01110448 -0.974153619 -1.01110448"></polygon>
                </g>
                <g id="Group-48" transform="translate(40.918759, 24.835821)">
                    <mask id="mask-32" fill="white">
                        <use xlink:href="#path-31"></use>
                    </mask>
                    <g id="Clip-47"></g>
                    <polygon id="Fill-46" fill="#DDBB74" mask="url(#mask-32)" points="-0.974153619 7.53170149 8.13038996 7.53170149 8.13038996 -1.03426866 -0.974153619 -1.03426866"></polygon>
                </g>
                <g id="Group-51" transform="translate(15.793205, 2.626866)">
                    <mask id="mask-34" fill="white">
                        <use xlink:href="#path-33"></use>
                    </mask>
                    <g id="Clip-50"></g>
                    <polygon id="Fill-49" fill="#DDBB74" mask="url(#mask-34)" points="-1.14692171 10.0649552 7.42448154 10.0649552 7.42448154 -1.0641194 -1.14692171 -1.0641194"></polygon>
                </g>
                <g id="Group-54" transform="translate(25.843427, 2.626866)">
                    <mask id="mask-36" fill="white">
                        <use xlink:href="#path-35"></use>
                    </mask>
                    <g id="Clip-53"></g>
                    <polygon id="Fill-52" fill="#DDBB74" mask="url(#mask-36)" points="-1.15098966 10.0649552 7.42041359 10.0649552 7.42041359 -1.0641194 -1.15098966 -1.0641194"></polygon>
                </g>
                <g id="Group-57" transform="translate(16.511078, 0.000000)">
                    <mask id="mask-38" fill="white">
                        <use xlink:href="#path-37"></use>
                    </mask>
                    <g id="Clip-56"></g>
                    <polygon id="Fill-55" fill="#DDBB74" mask="url(#mask-38)" points="-1.05240177 7.93122388 7.53096603 7.93122388 7.53096603 -1.15486567 -1.05240177 -1.15486567"></polygon>
                </g>
                <g id="Group-60" transform="translate(24.886263, 0.000000)">
                    <mask id="mask-40" fill="white">
                        <use xlink:href="#path-39"></use>
                    </mask>
                    <g id="Clip-59"></g>
                    <polygon id="Fill-58" fill="#DDBB74" mask="url(#mask-40)" points="-1.07537371 7.93122388 7.50799409 7.93122388 7.50799409 -1.15486567 -1.07537371 -1.15486567"></polygon>
                </g>
                <g id="Group-63" transform="translate(2.632201, 25.791045)">
                    <mask id="mask-42" fill="white">
                        <use xlink:href="#path-41"></use>
                    </mask>
                    <g id="Clip-62"></g>
                    <polygon id="Fill-61" fill="#DDBB74" mask="url(#mask-42)" points="-1.10552437 7.38746269 10.0463929 7.38746269 10.0463929 -1.16656716 -1.10552437 -1.16656716"></polygon>
                </g>
                <g id="Group-66" transform="translate(2.632201, 15.761194)">
                    <mask id="mask-44" fill="white">
                        <use xlink:href="#path-43"></use>
                    </mask>
                    <g id="Clip-65"></g>
                    <polygon id="Fill-64" fill="#DDBB74" mask="url(#mask-44)" points="-1.10552437 7.39128358 10.0463929 7.39128358 10.0463929 -1.16274627 -1.10552437 -1.16274627"></polygon>
                </g>
                <g id="Group-69" transform="translate(0.000000, 24.835821)">
                    <mask id="mask-46" fill="white">
                        <use xlink:href="#path-45"></use>
                    </mask>
                    <g id="Clip-68"></g>
                    <polygon id="Fill-67" fill="#DDBB74" mask="url(#mask-46)" points="-1.19645495 7.53170149 7.90808863 7.53170149 7.90808863 -1.03426866 -1.19645495 -1.03426866"></polygon>
                </g>
                <g id="Group-72" transform="translate(0.000000, 16.477612)">
                    <mask id="mask-48" fill="white">
                        <use xlink:href="#path-47"></use>
                    </mask>
                    <g id="Clip-71"></g>
                    <polygon id="Fill-70" fill="#DDBB74" mask="url(#mask-48)" points="-1.19645495 7.55486567 7.90808863 7.55486567 7.90808863 -1.01110448 -1.19645495 -1.01110448"></polygon>
                </g>
                <g id="Group-75" transform="translate(36.132939, 15.761194)">
                    <mask id="mask-50" fill="white">
                        <use xlink:href="#path-49"></use>
                    </mask>
                    <g id="Clip-74"></g>
                    <polygon id="Fill-73" fill="#DDBB74" mask="url(#mask-50)" points="-0.958599705 7.44859701 10.1933176 7.44859701 10.1933176 -1.10543284 -0.958599705 -1.10543284"></polygon>
                </g>
                <g id="Group-78" transform="translate(15.075332, 16.955224)">
                    <mask id="mask-52" fill="white">
                        <use xlink:href="#path-51"></use>
                    </mask>
                    <g id="Clip-77"></g>
                    <polygon id="Fill-76" fill="#2B3445" mask="url(#mask-52)" points="-1.19645495 16 18.9039882 16 18.9039882 -1.19402985 -1.19645495 -1.19402985"></polygon>
                </g>
            </g>
        </g>
    </g>
</svg>