<svg xmlns="http://www.w3.org/2000/svg" width="25" height="26" viewBox="0 0 25 26">
    <path fill="#81014F" fill-rule="evenodd" d="M18.23 15.056c-.31-.155-1.84-.908-2.125-1.012-.285-.104-.492-.156-.7.156-.207.311-.803 1.012-.985 1.22-.181.207-.363.233-.674.078-.31-.156-1.313-.485-2.501-1.545-.925-.824-1.55-1.843-1.731-2.155-.182-.311-.02-.48.136-.634.14-.14.311-.364.467-.545.156-.182.207-.312.311-.52.104-.207.052-.389-.026-.544-.078-.156-.7-1.687-.959-2.31-.253-.607-.509-.525-.7-.534-.181-.01-.389-.011-.596-.011-.208 0-.545.078-.83.389-.285.311-1.089 1.064-1.089 2.595 0 1.531 1.115 3.01 1.27 3.218.156.208 2.194 3.35 5.315 4.698.742.32 1.322.512 1.773.655.746.237 1.424.203 1.96.123.597-.09 1.84-.752 2.1-1.479.259-.727.259-1.35.181-1.48-.078-.13-.285-.207-.596-.363m3.13-11.405A12.369 12.369 0 0 0 12.556 0C5.692 0 .107 5.585.105 12.45c-.002 2.193.572 4.335 1.661 6.223L0 25.125l6.6-1.731a12.44 12.44 0 0 0 5.95 1.515h.005c6.861 0 12.447-5.585 12.45-12.45a12.375 12.375 0 0 0-3.643-8.808"/>
</svg>
