<svg xmlns="http://www.w3.org/2000/svg" width="26" height="25" viewBox="0 0 26 25">
    <path fill="#81014F" fill-rule="nonzero" d="M1.585 23.8C1 24.384 0 23.97 0 23.146V3.395A3.4 3.4 0 0 1 3.405 0h19.19A3.4 3.4 0 0 1 26 3.395v12.344a3.4 3.4 0 0 1-3.405 3.395H6.265L1.586 23.8zm6.308-12.69A1.39 1.39 0 0 0 9.286 9.72a1.39 1.39 0 0 0-1.393-1.389A1.39 1.39 0 0 0 6.5 9.722a1.39 1.39 0 0 0 1.393 1.388zm5.571 0a1.39 1.39 0 0 0 1.393-1.389 1.39 1.39 0 0 0-1.393-1.389 1.39 1.39 0 0 0-1.393 1.39 1.39 1.39 0 0 0 1.393 1.388zm5.572 0a1.39 1.39 0 0 0 1.393-1.389 1.39 1.39 0 0 0-1.393-1.389 1.39 1.39 0 0 0-1.393 1.39 1.39 1.39 0 0 0 1.393 1.388z"/>
</svg>
